<?xml version="1.0" encoding="utf-8"?>
<svg width="28px" height="28px" viewBox="0 0 28 28" version="1.1" xmlns:xlink="http://www.w3.org/1999/xlink" xmlns="http://www.w3.org/2000/svg">
  <desc>Created with Lunacy</desc>
  <path d="M17.5768 7.15363L25.1063 22.2126Q25.1632 22.3263 25.2127 22.4435Q25.2622 22.5606 25.3042 22.6806Q25.3462 22.8006 25.3805 22.9231Q25.4148 23.0456 25.4412 23.1699Q25.4676 23.2943 25.4861 23.4201Q25.5045 23.546 25.515 23.6727Q25.5254 23.7994 25.5278 23.9266Q25.5302 24.0537 25.5244 24.1807Q25.5187 24.3078 25.505 24.4342Q25.4912 24.5606 25.4694 24.6859Q25.4476 24.8112 25.4179 24.9348Q25.3882 25.0585 25.3507 25.18Q25.3132 25.3015 25.2681 25.4204Q25.223 25.5393 25.1704 25.6551Q25.1178 25.7708 25.0579 25.883Q24.9981 25.9952 24.9312 26.1034Q24.8644 26.2116 24.7908 26.3153Q24.7172 26.419 24.6372 26.5178Q24.5571 26.6166 24.471 26.7102Q24.3848 26.8037 24.2929 26.8916Q24.201 26.9795 24.1037 27.0613Q24.0064 27.1432 23.9041 27.2187Q23.8017 27.2942 23.6948 27.363Q23.5879 27.4319 23.4769 27.4938Q23.3658 27.5557 23.251 27.6105Q23.1362 27.6652 23.0182 27.7126Q22.9002 27.7599 22.7794 27.7997Q22.6586 27.8394 22.5355 27.8714Q22.4125 27.9034 22.2876 27.9275Q22.1627 27.9516 22.0366 27.9677Q21.9105 27.9838 21.7836 27.9919Q21.6566 28 21.5295 28L6.47052 28Q6.34335 28 6.21645 27.9919Q6.08954 27.9838 5.9634 27.9677Q5.83727 27.9516 5.71241 27.9275Q5.58755 27.9034 5.46448 27.8714Q5.3414 27.8394 5.22061 27.7997Q5.09982 27.7599 4.98179 27.7126Q4.86377 27.6652 4.74899 27.6105Q4.63422 27.5557 4.52315 27.4938Q4.41208 27.4319 4.30517 27.363Q4.19826 27.2942 4.09594 27.2187Q3.99363 27.1432 3.89631 27.0613Q3.799 26.9795 3.70708 26.8916Q3.61516 26.8037 3.52901 26.7102Q3.44287 26.6166 3.36283 26.5178Q3.2828 26.419 3.20921 26.3153Q3.13562 26.2116 3.06877 26.1034Q3.00191 25.9952 2.94207 25.883Q2.88222 25.7708 2.82962 25.6551Q2.77703 25.5393 2.73189 25.4204Q2.68676 25.3015 2.64926 25.18Q2.61177 25.0585 2.58208 24.9348Q2.55238 24.8112 2.53061 24.6859Q2.50883 24.5606 2.49505 24.4342Q2.48128 24.3078 2.47556 24.1807Q2.46984 24.0537 2.47221 23.9266Q2.47458 23.7994 2.48502 23.6727Q2.49546 23.546 2.51393 23.4202Q2.5324 23.2943 2.55883 23.1699Q2.58525 23.0456 2.61953 22.9231Q2.6538 22.8006 2.69579 22.6806Q2.73778 22.5606 2.78731 22.4435Q2.83683 22.3263 2.8937 22.2126L10.4232 7.15363Q10.4851 7.02983 10.5554 6.9106Q10.6257 6.79138 10.7041 6.6773Q10.7825 6.56322 10.8686 6.45483Q10.9547 6.34645 11.048 6.24427Q11.1414 6.1421 11.2416 6.04663Q11.3418 5.95115 11.4484 5.86284Q11.555 5.77452 11.6674 5.69379Q11.7799 5.61305 11.8976 5.54028Q12.0153 5.46751 12.1378 5.40306Q12.2603 5.33861 12.387 5.28278Q12.5136 5.22695 12.6439 5.18001Q12.7741 5.13307 12.9072 5.09524Q13.0404 5.05742 13.1758 5.02889Q13.3112 5.00037 13.4483 4.98127Q13.5854 4.96218 13.7235 4.95261Q13.8616 4.94304 14 4.94304Q14.1384 4.94304 14.2765 4.95261Q14.4146 4.96218 14.5517 4.98127Q14.6888 5.00037 14.8242 5.02889Q14.9596 5.05742 15.0928 5.09524Q15.2259 5.13307 15.3562 5.18001Q15.4864 5.22695 15.613 5.28278Q15.7397 5.33861 15.8622 5.40306Q15.9847 5.46751 16.1024 5.54028Q16.2201 5.61305 16.3326 5.69379Q16.445 5.77452 16.5516 5.86284Q16.6582 5.95115 16.7584 6.04663Q16.8586 6.1421 16.952 6.24428Q17.0453 6.34645 17.1314 6.45484Q17.2175 6.56322 17.2959 6.6773Q17.3743 6.79138 17.4446 6.9106Q17.5149 7.02983 17.5768 7.15363L17.5768 7.15363Z" transform="matrix(7.54979E-08 1 -1 7.54979E-08 28 0)" id="Triangle-Copy" fill="#FFFFFF" stroke="none" />
</svg>