<?xml version="1.0" encoding="utf-8"?>
<!-- Generator: Adobe Illustrator 20.0.0, SVG Export Plug-In . SVG Version: 6.00 Build 0)  -->
<svg version="1.1" id="Layer_1" xmlns="http://www.w3.org/2000/svg" xmlns:xlink="http://www.w3.org/1999/xlink" x="0px" y="0px"
	 viewBox="0 0 12.8 9.8" style="enable-background:new 0 0 12.8 9.8;" xml:space="preserve">
<style type="text/css">
	.st0{fill:#FFFFFF;}
	.st1{fill:none;stroke:#FFFFFF;stroke-width:0.47;stroke-miterlimit:10;}
</style>
<path class="st0" d="M9,5.3c0,1.9-2.1,3.3-4,2C4.4,7,4,6.3,4,5.6l0-3.7c0-0.2,0.2-0.4,0.4-0.4h4.3C8.8,1.6,9,1.7,9,1.9V5.3z"/>
<path class="st1" d="M4.7,3.1c0,0-0.7,0-1,0c-0.3,0-0.5,0.2-0.5,0.4c0,0.3,0,0,0,0.6s0.7,1.4,1,1.4s0.5,0,0.5,0V3.1z"/>
<path class="st1" d="M8.3,3.1c0,0,0.8,0,1.1,0c0.3,0,0.4,0.2,0.4,0.4c0,0.2,0,0,0,0.6s-0.7,1.4-1,1.4c-0.1,0-0.6,0-0.6,0L8.3,3.1z"
	/>
<path class="st0" d="M8.5,8.9C8.5,8.9,8.5,8.9,8.5,8.9c0,0-0.5,0-0.6,0c0-0.3-0.2-0.5-0.5-0.5c-0.3,0-0.5,0-0.5,0l0-1.7H6.1v1.7
	c0,0-0.2,0-0.5,0S5.1,8.6,5.1,8.9c-0.1,0-0.6,0-0.6,0C4.3,8.9,4.2,9,4.2,9.2c0,0.2,0.1,0.3,0.3,0.3h4c0.2,0,0.3-0.1,0.3-0.3
	C8.8,9,8.7,8.9,8.5,8.9z"/>
</svg>
