<?xml version="1.0" encoding="utf-8"?>
<svg width="17px" height="17px" viewBox="0 0 17 17" version="1.1" xmlns:xlink="http://www.w3.org/1999/xlink" xmlns="http://www.w3.org/2000/svg">
  <desc>Created with Lunacy</desc>
  <path d="M5.999 0L9.001 0Q9.14827 0 9.29536 0.00722606Q9.44245 0.0144521 9.589 0.0288868Q9.73556 0.0433215 9.88124 0.0649301Q10.0269 0.0865387 10.1713 0.115269Q10.3158 0.143999 10.4586 0.179782Q10.6015 0.215565 10.7424 0.258315Q10.8833 0.301064 11.022 0.350677Q11.1607 0.40029 11.2967 0.456647Q11.4328 0.513003 11.5659 0.575968Q11.699 0.638933 11.8289 0.708354Q11.9588 0.777776 12.0851 0.853486Q12.2114 0.929196 12.3339 1.01101Q12.4563 1.09283 12.5746 1.18056Q12.6929 1.26828 12.8067 1.36171Q12.9206 1.45514 13.0297 1.55403Q13.1388 1.65293 13.2429 1.75707Q13.3471 1.8612 13.446 1.97032Q13.5449 2.07944 13.6383 2.19327Q13.7317 2.30711 13.8194 2.4254Q13.9072 2.54369 13.989 2.66613Q14.0708 2.78858 14.1465 2.9149Q14.2222 3.04121 14.2916 3.17109Q14.3611 3.30097 14.424 3.4341Q14.487 3.56722 14.5434 3.70328Q14.5997 3.83934 14.6493 3.978Q14.6989 4.11666 14.7417 4.25758Q14.7844 4.39851 14.8202 4.54136Q14.856 4.68422 14.8847 4.82865Q14.9135 4.97309 14.9351 5.11876Q14.9567 5.26444 14.9711 5.411Q14.9855 5.55755 14.9928 5.70464Q15 5.85173 15 5.999L15 9.001Q15 9.14827 14.9928 9.29536Q14.9855 9.44245 14.9711 9.589Q14.9567 9.73556 14.9351 9.88124Q14.9135 10.0269 14.8847 10.1713Q14.856 10.3158 14.8202 10.4586Q14.7844 10.6015 14.7417 10.7424Q14.6989 10.8833 14.6493 11.022Q14.5997 11.1607 14.5434 11.2967Q14.487 11.4328 14.424 11.5659Q14.3611 11.699 14.2916 11.8289Q14.2222 11.9588 14.1465 12.0851Q14.0708 12.2114 13.989 12.3339Q13.9072 12.4563 13.8194 12.5746Q13.7317 12.6929 13.6383 12.8067Q13.5449 12.9206 13.446 13.0297Q13.3471 13.1388 13.2429 13.2429Q13.1388 13.3471 13.0297 13.446Q12.9206 13.5449 12.8067 13.6383Q12.6929 13.7317 12.5746 13.8194Q12.4563 13.9072 12.3339 13.989Q12.2114 14.0708 12.0851 14.1465Q11.9588 14.2222 11.8289 14.2916Q11.699 14.3611 11.5659 14.424Q11.4328 14.487 11.2967 14.5434Q11.1607 14.5997 11.022 14.6493Q10.8833 14.6989 10.7424 14.7417Q10.6015 14.7844 10.4586 14.8202Q10.3158 14.856 10.1713 14.8847Q10.0269 14.9135 9.88124 14.9351Q9.73556 14.9567 9.589 14.9711Q9.44245 14.9855 9.29536 14.9928Q9.14827 15 9.001 15L5.999 15Q5.85173 15 5.70464 14.9928Q5.55755 14.9855 5.411 14.9711Q5.26444 14.9567 5.11876 14.9351Q4.97309 14.9135 4.82865 14.8847Q4.68422 14.856 4.54136 14.8202Q4.39851 14.7844 4.25758 14.7417Q4.11666 14.6989 3.978 14.6493Q3.83934 14.5997 3.70328 14.5434Q3.56722 14.487 3.4341 14.424Q3.30097 14.3611 3.17109 14.2916Q3.04121 14.2222 2.9149 14.1465Q2.78858 14.0708 2.66613 13.989Q2.54369 13.9072 2.4254 13.8194Q2.30711 13.7317 2.19327 13.6383Q2.07944 13.5449 1.97032 13.446Q1.8612 13.3471 1.75707 13.2429Q1.65293 13.1388 1.55403 13.0297Q1.45514 12.9206 1.36171 12.8067Q1.26829 12.6929 1.18056 12.5746Q1.09283 12.4563 1.01101 12.3339Q0.929196 12.2114 0.853486 12.0851Q0.777776 11.9588 0.708354 11.8289Q0.638933 11.699 0.575968 11.5659Q0.513003 11.4328 0.456647 11.2967Q0.40029 11.1607 0.350677 11.022Q0.301064 10.8833 0.258315 10.7424Q0.215565 10.6015 0.179782 10.4586Q0.143999 10.3158 0.115269 10.1713Q0.0865387 10.0269 0.0649301 9.88124Q0.0433215 9.73556 0.0288868 9.589Q0.0144521 9.44245 0.00722606 9.29536Q0 9.14827 0 9.001L0 5.999Q0 5.85173 0.00722606 5.70464Q0.0144521 5.55755 0.0288868 5.411Q0.0433215 5.26444 0.0649301 5.11876Q0.0865387 4.97309 0.115269 4.82865Q0.143999 4.68422 0.179782 4.54136Q0.215565 4.39851 0.258315 4.25758Q0.301064 4.11666 0.350677 3.978Q0.40029 3.83934 0.456647 3.70328Q0.513003 3.56722 0.575968 3.4341Q0.638933 3.30097 0.708354 3.17109Q0.777776 3.04121 0.853486 2.9149Q0.929196 2.78858 1.01101 2.66613Q1.09283 2.54369 1.18056 2.4254Q1.26828 2.30711 1.36171 2.19327Q1.45514 2.07944 1.55403 1.97032Q1.65293 1.8612 1.75707 1.75707Q1.8612 1.65293 1.97032 1.55403Q2.07944 1.45514 2.19327 1.36171Q2.30711 1.26829 2.4254 1.18056Q2.54369 1.09283 2.66613 1.01101Q2.78858 0.929196 2.9149 0.853486Q3.04121 0.777776 3.17109 0.708354Q3.30097 0.638933 3.4341 0.575968Q3.56722 0.513003 3.70328 0.456647Q3.83934 0.40029 3.978 0.350677Q4.11666 0.301064 4.25758 0.258315Q4.39851 0.215565 4.54136 0.179782Q4.68422 0.143999 4.82865 0.115269Q4.97309 0.0865387 5.11876 0.0649301Q5.26444 0.0433215 5.411 0.0288868Q5.55755 0.0144521 5.70464 0.00722606Q5.85173 0 5.999 0Z" transform="translate(1 1)" id="Rectangle-3" fill="none" stroke="#FFFFFF" stroke-width="2" />
</svg>