<?xml version="1.0" encoding="utf-8"?>
<!-- Generator: Adobe Illustrator 20.0.0, SVG Export Plug-In . SVG Version: 6.00 Build 0)  -->
<svg version="1.1" id="Layer_1" xmlns="http://www.w3.org/2000/svg" xmlns:xlink="http://www.w3.org/1999/xlink" x="0px" y="0px"
	 viewBox="0 0 20 21" style="enable-background:new 0 0 20 21;" xml:space="preserve">
<style type="text/css">
	.st0{display:none;opacity:3.000000e-02;fill:#FFFFFF;enable-background:new    ;}
	.st1{fill:#FFFFFF;}
	.st2{display:none;fill:#FFFFFF;}
	.st3{opacity:1.000000e-02;fill:#FFFFFF;enable-background:new    ;}
</style>
<circle class="st0" cx="10" cy="9.9" r="9.9"/>
<path class="st1" d="M15.7,12c2.3-1.1,2.9-1.2,3.7-0.9c0.3,0.1,0.4,0.4,0.4,0.6c-0.8,4.6-4.9,8.1-9.8,8.1s-8.9-3.5-9.8-8.1
	c0-0.2,0.1-0.5,0.3-0.6c0.9-0.4,1.5-0.3,3.2,0.6c1.6,0.9,2.3,0.4,4.8-0.3C11.2,10.7,13.2,13.1,15.7,12z"/>
<path id="Rectangle-4_1_" class="st1" d="M7.3,6.9c0-0.8,1.6-3.7,2.1-5.1c0.3-0.5,0.8-0.5,1.1,0c0.5,1.3,2.1,4,2.1,5.1
	c0,1.6-1.1,2.5-2.8,2.5C8.7,9.4,7.3,8.5,7.3,6.9z"/>
<path class="st2" d="M14.7,6.4c-0.4-0.4-1.1-0.4-1.5,0l-2.7,2.7l0,0l-0.9,1L7.8,7.9c-0.4-0.4-1-0.5-1.5,0c-0.4,0.4-0.5,1-0.1,1.5
	l2.4,2.9c0.2,0.3,0.6,0.4,0.9,0.4c0.3,0,0.6-0.1,0.8-0.3l1.7-1.7l1-1L14.7,8C15.1,7.5,15.1,6.9,14.7,6.4z"/>
<rect class="st3" width="20" height="0.2"/>
</svg>
