<?xml version="1.0" encoding="utf-8"?>
<!-- Generator: Adobe Illustrator 20.0.0, SVG Export Plug-In . SVG Version: 6.00 Build 0)  -->
<svg version="1.1" id="Layer_1" xmlns="http://www.w3.org/2000/svg" xmlns:xlink="http://www.w3.org/1999/xlink" x="0px" y="0px"
	 viewBox="0 0 463.9 488" style="enable-background:new 0 0 463.9 488;" xml:space="preserve">
<style type="text/css">
	.st0{fill:#FFFFFF;}
</style>
<title>icon 61</title>
<path class="st0" d="M389,175.8c-26.1,41.6-64,100.9-119.8,142c-4.1,3-6.5,7.8-6.3,12.9c0.5,22.7-5.4,89.7-84.2,144.2
	c-9.5,6.6-22.5,0.8-24.2-10.6l-5.1-34.6c-0.7-4.6,0.7-9.3,3.9-12.8l42.4-46.4c2.4-2.6,3.8-5.9,4-9.4l0.8-11.5
	c1-13.3-14.2-21.6-24.9-13.7c-7.4,5.5-13.4,32-33.4,49c-10.7,9-26.3,8.4-36.1-1.4l-12.9-12.7c-10-9.8-10.7-25.8-1.5-36.5l55.5-39.5
	c6.7-7.9,4-20-5.4-24.3l0,0c-4.9-2.2-10.6-1.8-15.1,1.2l-6.6,4.4c-0.5,0.3-1,0.7-1.5,1.1l-46.8,40.2c-2.3,1.9-5,3.2-7.9,3.6
	l-38.9,5.6c-12.1,1.7-21.4-10.5-16.5-21.7c12.6-28.8,43.8-73.9,117.8-88c3.5-0.7,6.6-2.4,8.9-5.1c14.7-16.9,87.2-82.5,155.4-130.7
	c3.4-2.4,7.7-3.2,11.7-2.2c44.1,12.4,74.9,59.9,86.9,81.7c0.5,0.9,0.9,1.8,1.2,2.7C391.7,167.4,391.3,172,389,175.8z M406.6,152.3
	c-33.5-51.6-75.3-79.2-92.8-89.2c-1.1-0.6-1.1-2.2,0-2.8c38.4-22.8,79.8-40.7,121-47.1c2-0.3,4-1,5.8-2.1c2.3-1.3,6.5-1.7,11,8.8
	c1.3,3,1.6,6.3,0.9,9.4C449.3,44.1,437.1,93.3,406.6,152.3L406.6,152.3z"/>
</svg>
