<?xml version="1.0" encoding="utf-8"?>
<!-- Generator: Adobe Illustrator 20.0.0, SVG Export Plug-In . SVG Version: 6.00 Build 0)  -->
<svg version="1.1" id="Layer_1" xmlns="http://www.w3.org/2000/svg" xmlns:xlink="http://www.w3.org/1999/xlink" x="0px" y="0px"
	 viewBox="0 0 407.9 487.9" style="enable-background:new 0 0 407.9 487.9;" xml:space="preserve">
<style type="text/css">
	.st0{fill:#FFFFFF;}
</style>
<title>icon 55</title>
<path class="st0" d="M185.9,372.6c-59.6-41.3-91.4-108.1-96.4-202.5c-0.9-15.6,9.8-29.6,25.1-33c23.4-5.2,34.1,4.8,55.3-4.4
	c3.3-1.5,15.9-5.6,22.1-2.4c7.5,3.8,21.3,0.9,26.8-1.3s19.3-2.8,25.9,0c17.5,7.6,28.3,4.1,49.6,9.5c14.8,3.8,25,17.3,24.3,32.6
	c-4.4,92-36,158.2-96,201.1C211.7,380.1,196.9,380.2,185.9,372.6z M359.9,139.2c0.3-18.3-12.6-34.2-30.6-37.5
	c-47.4-8.8-56.7-7.3-93.3-18.4c-3.9-1.2-17.3,3-36.7,4.3c-8.3,0.6-21.5-5.4-28.7-4.6c-8.5,1-16.3,5.3-19.3,6.6
	c-29,12.5-40,4.2-72.4,10.3c-18.2,3.4-31.1,19.5-30.7,38c3.1,136,49.9,228.5,136.4,281.4c12.4,7.6,28,7.4,40.2-0.4
	C309.3,365.1,357.8,275.2,359.9,139.2z M185.6,497.3C65.7,427.5,1.8,281.9,0,94.9c-0.2-18.5,13.2-34.2,31.3-37.4
	c46.6-8.1,83.9-19,124.5-36.4c14.9-6.7,41.8-23.5,51.6-20.7c50,15.2,102.5,49,168.4,59.1c18.5,2.9,32,18.8,32,37.5
	c-0.7,187.1-66.8,328.8-183.7,400C212.4,504.1,197.5,504.2,185.6,497.3z"/>
</svg>
