<?xml version="1.0" encoding="utf-8"?>
<!-- Generator: Adobe Illustrator 20.0.0, SVG Export Plug-In . SVG Version: 6.00 Build 0)  -->
<svg version="1.1" id="Layer_1" xmlns="http://www.w3.org/2000/svg" xmlns:xlink="http://www.w3.org/1999/xlink" x="0px" y="0px"
	 viewBox="0 0 355.4 333.2" style="enable-background:new 0 0 355.4 333.2;" xml:space="preserve">
<style type="text/css">
	.st0{fill:#FFFFFF;}
</style>
<title>icon 2</title>
<path class="st0" d="M198,276.6c-36.1,14-60.7,17.7-77.2,17.3c-15-0.5-29.8,3.7-42.4,11.9c-16.1,10.5-32.9,19.9-49.6,26.6
	c-17.6,7.1-47.5-29.3-12.8-26.7c12.3,1,30-6.4,49.2-18.2c10.4-6.4,15.6-18.8,12.9-30.7c-4.3-19-5.7-49.6,6.1-96.3
	C110.2,57.3,243.8,15.6,338,0.2c8.2-1.3,15.9,4.3,17.1,12.5c0.6,3.8-0.3,7.6-2.4,10.8C292.8,110.1,285,240,198,276.6z"/>
</svg>
