<?xml version="1.0" encoding="utf-8"?>
<!-- Generator: Adobe Illustrator 20.0.0, SVG Export Plug-In . SVG Version: 6.00 Build 0)  -->
<svg version="1.1" id="Layer_1" xmlns="http://www.w3.org/2000/svg" xmlns:xlink="http://www.w3.org/1999/xlink" x="0px" y="0px"
	 viewBox="0 0 128 128" style="enable-background:new 0 0 128 128;" xml:space="preserve">
<style type="text/css">
	.st0{fill:#FFFFFF;}
</style>
<path class="st0" d="M106.3,40.4c-0.5-0.9-1.1-1.8-1.6-2.7c-1.6-2.8-4.4-4.7-7.6-5.3c-10.4-1.9-18.3-6.9-24.9-14.4
	C70,15.5,66.9,14,63.7,14h-4.9c-3.1,0-6,1.3-8.1,3.6C44,24.9,40.1,28.8,25.6,32.1c-3,0.7-5.5,2.5-7.1,5.2c-0.7,1.2-1.3,2.3-1.9,3.3
	c-1.6,2.7-2,6-1,8.9c3.1,9.7,3.9,19.2,0.2,30.1c-1,3-0.8,6.3,0.7,9.1c0.7,1.2,1.3,2.3,2,3.4c1.5,2.5,3.9,4.3,6.7,5
	c11.8,3,18.4,5.6,24.7,13.7c2.1,2.7,5.3,4.3,8.7,4.3H64c3.1,0,6-1.4,8-3.6c8.2-9.1,17.6-12.7,25.5-14.5c3.1-0.7,5.7-2.7,7.2-5.5
	c0.6-1.1,1.3-2.3,1.9-3.5c1.5-2.9,1.6-6.3,0.4-9.3c-3.5-9-3.4-19,0.1-29C108.2,46.6,107.9,43.2,106.3,40.4z M82.4,60.4
	c3.4,15.3-10.3,28.9-25.6,25.6c-8.1-1.8-14.6-8.3-16.4-16.4C37,54.3,50.7,40.6,66,44C74.1,45.8,80.6,52.3,82.4,60.4z"/>
</svg>
