<?xml version="1.0" encoding="utf-8"?>
<!-- Generator: Adobe Illustrator 20.0.0, SVG Export Plug-In . SVG Version: 6.00 Build 0)  -->
<svg version="1.1" id="Layer_1" xmlns="http://www.w3.org/2000/svg" xmlns:xlink="http://www.w3.org/1999/xlink" x="0px" y="0px"
	 viewBox="0 0 428 476" style="enable-background:new 0 0 428 476;" xml:space="preserve">
<style type="text/css">
	.st0{fill:#FFFFFF;}
</style>
<title>Estimate Icon</title>
<path class="st0" d="M312.3,98.5c17.9,0,32.4-14.4,32.4-32.3V33.1c0-19-15.6-34.4-34.6-33.1c-16.9,1.1-30.2,15.2-30.2,32.3v33.9
	C279.9,84,294.4,98.5,312.3,98.5z"/>
<path class="st0" d="M114.7,98.5c17.9,0,32.4-14.4,32.4-32.3V32.3c0-17.9-14.5-32.4-32.4-32.4S82.3,14.4,82.3,32.3v33.9
	C82.3,84,96.8,98.5,114.7,98.5z"/>
<path class="st0" d="M395.1,49.2L395.1,49.2c-16.4,0-30.6,11.4-34.2,27.4c-6.2,26.6-32.7,43.2-59.3,37c-17.5-4.1-31.4-7.7-36.3-25
	c-5.2-17.8-21.5-30-40-29.9h-21.7c-19,0.1-35.6,12.5-41.1,30.7c-8,26.1-35.6,31.3-61.7,23.3c-16.9-5.2-29.7-18.9-33.7-36.1
	c-3.6-16-17.8-27.4-34.2-27.4l0,0C14.8,49.2,0,63.9,0,82.1v361.1C0,461.3,14.8,476,32.9,476h362.2c18.2,0,32.9-14.7,32.9-32.8V82.1
	C428,63.9,413.3,49.2,395.1,49.2z M312.1,231.2l-36.3,36.3l-21.2,21.2l-36.3,36.3c-4.5,4.5-10.6,6.1-16.7,6.1s-13.6-1.5-18.2-7.6
	L131.9,263c-7.6-9.1-6.1-22.7,3-31.8c8.5-8.5,21-7.7,30-0.1c1.1,0.9,2,1.9,2.9,3l18.8,23.6c8.7,10.8,24.9,11.4,34.3,1.3l1.8-1.9
	l57.6-56c7.1-7.1,17.1-8.7,25.4-4.6c4.6,2.3,8.2,6.2,10.2,10.9C319.3,215.5,318,225.2,312.1,231.2L312.1,231.2z"/>
</svg>
