<svg id="Layer_1" data-name="Layer 1" xmlns="http://www.w3.org/2000/svg" viewBox="0 0 472.68 472.11"><defs><style>.cls-1{fill:#fff;}</style></defs><title>Progress Icon</title><path class="cls-1" d="M195.47,285.78l-.35-.35c-.12-.13-38.24-21.86-66.29-37.83a17.61,17.61,0,0,1,1.11-31.18l179.35-85.91c18.11-8.67,34.29,14.85,19.72,28.66Zm52.28,92c-10.75-20.95-24.61-48.27-33.37-66.61a17.6,17.6,0,0,1,3.78-20.36L351.77,164.15c14.42-13.68,36.92,3.29,27.73,20.92L279,377.88A17.61,17.61,0,0,1,247.75,377.79ZM468,26.68c-13.19,6.4-300,144.87-393.7,190.11a17.61,17.61,0,0,0-1.41,30.95c40.07,24.08,109,65.49,108.54,64.92-.16-.18,42.14,77.17,66,120.77a17.61,17.61,0,0,0,31.09-.36C327.64,338.22,478.83,46,481.68,40.3,484.67,31.79,478.27,22.43,468,26.68Zm30.29,19.44v0a17.61,17.61,0,0,1-.84,2l0,0C494,55,287.79,453.59,279,470.56l0,0a17.61,17.61,0,0,1-31.09.36l0,0c-49.95-91.29-69.5-127.07-77.22-141.24a17.56,17.56,0,0,0-6.52-6.74c-3.45-2-7.78-4.62-13.3-7.91C138,307.36,121,297.13,103.93,286.91c-34-20.43-68-40.87-68-40.87h0a17.61,17.61,0,0,1,1.42-30.95h0c4.07-2,407.42-196.69,423-204.25l.46-.22.47-.19A30.39,30.39,0,0,1,473,8,26.48,26.48,0,0,1,494.8,19.27,29.53,29.53,0,0,1,498.32,46.13Z" transform="translate(-27.38 -8.01)"/></svg>