<?xml version="1.0" encoding="utf-8"?>
<!-- Generator: Adobe Illustrator 20.0.0, SVG Export Plug-In . SVG Version: 6.00 Build 0)  -->
<svg version="1.1" id="Layer_1" xmlns="http://www.w3.org/2000/svg" xmlns:xlink="http://www.w3.org/1999/xlink" x="0px" y="0px"
	 viewBox="0 0 512 512" style="enable-background:new 0 0 512 512;" xml:space="preserve">
<style type="text/css">
	.st0{fill:#FFFFFF;}
</style>
<path class="st0" d="M107.5,383.9c-15.4-5.3-21.1-26.1-10.4-39.4c37-46,39.6-136,39.6-136h0.5c-0.5-3-0.5-6.1-0.5-9
	c0-70.1,52-126.9,116.2-126.9c63.7,0,116.1,56.8,116.1,126.9c0,1.3-0.2,2.8-0.2,4.2h0.2c2.5,68.8,27.4,114,46.5,138.9
	c10.1,13.2,3.7,34.5-10.4,38.8C390.9,385.8,122.9,389.2,107.5,383.9z M253.8,447.2c-23.1,0-42.1-21.9-42.1-49.2c0-0.3,0.4-0.8,0-0.8
	c25.8,0.1,56.5,0.3,84.6,0.4c0,0,0,0,0,0.3C296.2,425.3,277,447.2,253.8,447.2z"/>
</svg>
