<svg id="Layer_1" data-name="Layer 1" xmlns="http://www.w3.org/2000/svg" viewBox="0 0 423.41 440.39"><defs><style>.cls-1{fill:#fff;}</style></defs><title>Statistics Icon</title><path class="cls-1" d="M343.52,416.22V352a62.27,62.27,0,0,1,62.27-62.27h0A62.27,62.27,0,0,1,468.05,352v64.21a62.27,62.27,0,0,1-62.27,62.27h0A62.27,62.27,0,0,1,343.52,416.22Zm-149.44,0V100.36A62.27,62.27,0,0,1,256.35,38.1h0a62.27,62.27,0,0,1,62.27,62.27V416.22a62.27,62.27,0,0,1-62.27,62.27h0A62.27,62.27,0,0,1,194.08,416.22Zm-149.44,0v-190a62.27,62.27,0,0,1,62.27-62.27h0a62.27,62.27,0,0,1,62.27,62.27v190a62.27,62.27,0,0,1-62.27,62.27h0A62.27,62.27,0,0,1,44.64,416.22Z" transform="translate(-44.64 -38.1)"/></svg>