<?xml version="1.0" encoding="utf-8"?>
<!-- Generator: Adobe Illustrator 20.0.0, SVG Export Plug-In . SVG Version: 6.00 Build 0)  -->
<svg version="1.1" id="Layer_1" xmlns="http://www.w3.org/2000/svg" xmlns:xlink="http://www.w3.org/1999/xlink" x="0px" y="0px"
	 viewBox="0 0 12.8 9.8" style="enable-background:new 0 0 12.8 9.8;" xml:space="preserve">
<style type="text/css">
	.st0{display:none;fill:#FFFFFF;}
	.st1{fill:#FFFFFF;}
	.st2{opacity:1.000000e-02;fill:#FFFFFF;}
</style>
<circle class="st0" cx="6.4" cy="5" r="5"/>
<path class="st0" d="M8.9,9.3C8.2,9.8,7.3,10,6.4,10c-0.9,0-1.8-0.2-2.5-0.7C3.8,9.3,3.7,9,4.2,9s3.3,0,4.5,0C9.1,9,9,9.3,8.9,9.3z"
	/>
<path class="st0" d="M9.9,8c0.2,0,0.3,0.2,0.2,0.4C9.2,9.4,7.9,10,6.4,10c-1.5,0-2.8-0.6-3.7-1.6C2.6,8.2,2.7,8,2.9,8
	C4.5,8,8.5,8,9.9,8z"/>
<path class="st1" d="M10.4,7c0.3,0,0.4,0.3,0.3,0.5C9.9,9,8.2,10,6.4,10C4.6,10,3,9,2.1,7.5C2,7.3,2.1,7,2.4,7C4.3,7,8.7,7,10.4,7z"
	/>
<path class="st0" d="M10.8,6c0.2,0,0.4,0.2,0.4,0.5c-0.6,2-2.5,3.5-4.8,3.5c-2.3,0-4.2-1.5-4.8-3.5C1.5,6.2,1.7,6,2,6
	C3.8,6,8.9,6,10.8,6z"/>
<path class="st0" d="M11,5c0.2,0,0.4,0.2,0.4,0.4C11.2,8,9,10,6.4,10s-4.8-2-5-4.6C1.4,5.2,1.6,5,1.8,5C3.4,5,9.4,5,11,5z"/>
<path class="st0" d="M11.4,5c0,3.1-2.8,5.6-6.1,4.9C3.4,9.5,1.9,7.9,1.5,6C1.4,5.4,1.4,4.9,1.4,4.3C1.5,4.1,1.6,4,1.8,4
	c1.8,0,7.1,0,9.1,0c0.3,0,0.4,0.2,0.4,0.3C11.4,4.5,11.4,4.8,11.4,5z"/>
<path class="st0" d="M11.4,5c0,2.8-2.2,5-5,5c-2.7,0-5-2.2-5-4.9c0-0.6,0.1-1.3,0.3-1.8C1.8,3.1,1.9,3,2.1,3c1.5,0,7,0,8.5,0
	c0.2,0,0.4,0.1,0.4,0.3C11.3,3.8,11.4,4.4,11.4,5z"/>
<path class="st0" d="M11.4,5c0,3.1-2.8,5.6-6.1,4.9C3.4,9.5,1.9,8,1.5,6.1c-0.3-1.4,0-2.7,0.7-3.7C2.3,2.1,2.6,2,2.8,2
	C4.4,2,8.5,2,10,2c0.3,0,0.5,0.1,0.6,0.3C11.1,3.1,11.4,4,11.4,5z"/>
<path class="st0" d="M11.4,5c0,3.6-3.9,6.3-7.7,4.3C3,8.9,2.5,8.3,2.1,7.7C0.9,5.3,1.4,3,2.8,1.5C3,1.3,3.4,1,3.8,1C5.1,1,8.5,1,9,1
	c0.5,0,0.8,0.3,1,0.5C10.9,2.4,11.4,3.6,11.4,5z"/>
<rect class="st2" width="12.8" height="0.1"/>
</svg>
