<?xml version="1.0" encoding="utf-8"?>
<!-- Generator: Adobe Illustrator 20.0.0, SVG Export Plug-In . SVG Version: 6.00 Build 0)  -->
<svg version="1.1" id="Layer_1" xmlns="http://www.w3.org/2000/svg" xmlns:xlink="http://www.w3.org/1999/xlink" x="0px" y="0px"
	 viewBox="0 0 60 60" style="enable-background:new 0 0 60 60;" xml:space="preserve">
<style type="text/css">
	.st0{fill:#FFFFFF;}
</style>
<path class="st0" d="M39.1,24.8l-7.6-7.6c0,0,0,0,0,0c-0.3-0.3-0.6-0.5-1-0.5c0,0,0,0,0,0c-0.1,0-0.3,0-0.4,0c0,0,0,0,0,0s0,0,0,0
	c-0.1,0-0.3,0-0.4,0c0,0,0,0,0,0c-0.4,0.1-0.7,0.3-1,0.5c0,0,0,0,0,0l-7.6,7.6c-0.7,0.7-0.9,1.9-0.3,2.7c0.7,1,2.2,1.1,3,0.2
	l4.3-4.3c0,0,0.1,0,0.1,0l0,18.9c0,1,0.7,2,1.7,2.1c1.2,0.2,2.3-0.8,2.3-2V23.5c0,0,0.1-0.1,0.1,0l4.3,4.3c0.8,0.8,2.3,0.8,3-0.2
	C40,26.7,39.8,25.6,39.1,24.8z"/>
</svg>
