<?xml version="1.0" encoding="utf-8"?>
<svg width="24px" height="24px" viewBox="0 0 24 24" version="1.1" xmlns:xlink="http://www.w3.org/1999/xlink" xmlns="http://www.w3.org/2000/svg">
  <desc>Created with Lunacy</desc>
  <path d="M7.999 0L12.001 0Q12.1974 0 12.3935 0.00963514Q12.5896 0.0192703 12.785 0.0385174Q12.9805 0.0577644 13.1747 0.0865771Q13.3689 0.11539 13.5615 0.153699Q13.7541 0.192007 13.9446 0.23972Q14.1351 0.287433 14.323 0.344434Q14.5109 0.401436 14.6958 0.467589Q14.8807 0.533742 15.0621 0.608888Q15.2435 0.684033 15.421 0.76799Q15.5985 0.851946 15.7717 0.944512Q15.9449 1.03708 16.1133 1.13803Q16.2817 1.23898 16.445 1.34807Q16.6083 1.45717 16.766 1.57414Q16.9237 1.69112 17.0755 1.81569Q17.2273 1.94026 17.3728 2.07213Q17.5183 2.204 17.6571 2.34285Q17.796 2.4817 17.9279 2.6272Q18.0597 2.7727 18.1843 2.92449Q18.3089 3.07628 18.4259 3.234Q18.5428 3.39172 18.6519 3.55499Q18.761 3.71826 18.862 3.88669Q18.9629 4.05512 19.0555 4.2283Q19.148 4.40148 19.232 4.57899Q19.316 4.7565 19.3911 4.93791Q19.4663 5.11933 19.5324 5.30422Q19.5986 5.4891 19.6556 5.67701Q19.7126 5.86492 19.7603 6.0554Q19.808 6.24588 19.8463 6.43847Q19.8846 6.63106 19.9134 6.8253Q19.9422 7.01954 19.9615 7.21496Q19.9807 7.41038 19.9904 7.60651Q20 7.80264 20 7.999L20 12.001Q20 12.1974 19.9904 12.3935Q19.9807 12.5896 19.9615 12.785Q19.9422 12.9805 19.9134 13.1747Q19.8846 13.3689 19.8463 13.5615Q19.808 13.7541 19.7603 13.9446Q19.7126 14.1351 19.6556 14.323Q19.5986 14.5109 19.5324 14.6958Q19.4663 14.8807 19.3911 15.0621Q19.316 15.2435 19.232 15.421Q19.148 15.5985 19.0555 15.7717Q18.9629 15.9449 18.862 16.1133Q18.761 16.2817 18.6519 16.445Q18.5428 16.6083 18.4259 16.766Q18.3089 16.9237 18.1843 17.0755Q18.0597 17.2273 17.9279 17.3728Q17.796 17.5183 17.6571 17.6571Q17.5183 17.796 17.3728 17.9279Q17.2273 18.0597 17.0755 18.1843Q16.9237 18.3089 16.766 18.4259Q16.6083 18.5428 16.445 18.6519Q16.2817 18.761 16.1133 18.862Q15.9449 18.9629 15.7717 19.0555Q15.5985 19.148 15.421 19.232Q15.2435 19.316 15.0621 19.3911Q14.8807 19.4663 14.6958 19.5324Q14.5109 19.5986 14.323 19.6556Q14.1351 19.7126 13.9446 19.7603Q13.7541 19.808 13.5615 19.8463Q13.3689 19.8846 13.1747 19.9134Q12.9805 19.9422 12.785 19.9615Q12.5896 19.9807 12.3935 19.9904Q12.1974 20 12.001 20L7.999 20Q7.80264 20 7.60651 19.9904Q7.41038 19.9807 7.21496 19.9615Q7.01954 19.9422 6.8253 19.9134Q6.63106 19.8846 6.43847 19.8463Q6.24588 19.808 6.0554 19.7603Q5.86492 19.7126 5.67701 19.6556Q5.4891 19.5986 5.30422 19.5324Q5.11933 19.4663 4.93791 19.3911Q4.7565 19.316 4.57899 19.232Q4.40148 19.148 4.2283 19.0555Q4.05512 18.9629 3.88669 18.862Q3.71826 18.761 3.55499 18.6519Q3.39172 18.5428 3.234 18.4259Q3.07628 18.3089 2.92449 18.1843Q2.7727 18.0597 2.6272 17.9279Q2.4817 17.796 2.34285 17.6571Q2.204 17.5183 2.07213 17.3728Q1.94026 17.2273 1.81569 17.0755Q1.69112 16.9237 1.57414 16.766Q1.45717 16.6083 1.34807 16.445Q1.23898 16.2817 1.13803 16.1133Q1.03708 15.9449 0.944512 15.7717Q0.851946 15.5985 0.76799 15.421Q0.684033 15.2435 0.608888 15.0621Q0.533742 14.8807 0.467589 14.6958Q0.401436 14.5109 0.344434 14.323Q0.287433 14.1351 0.23972 13.9446Q0.192007 13.7541 0.153699 13.5615Q0.11539 13.3689 0.0865771 13.1747Q0.0577644 12.9805 0.0385174 12.785Q0.0192703 12.5896 0.00963514 12.3935Q0 12.1974 0 12.001L0 7.999Q0 7.80264 0.00963514 7.60651Q0.0192703 7.41038 0.0385174 7.21496Q0.0577644 7.01954 0.0865771 6.8253Q0.11539 6.63106 0.153699 6.43847Q0.192007 6.24588 0.23972 6.0554Q0.287433 5.86492 0.344434 5.67701Q0.401436 5.4891 0.467589 5.30422Q0.533742 5.11933 0.608888 4.93791Q0.684033 4.7565 0.76799 4.57899Q0.851946 4.40148 0.944512 4.2283Q1.03708 4.05512 1.13803 3.88669Q1.23898 3.71826 1.34807 3.55499Q1.45717 3.39172 1.57414 3.234Q1.69112 3.07628 1.81569 2.92449Q1.94026 2.7727 2.07213 2.6272Q2.204 2.4817 2.34285 2.34285Q2.4817 2.204 2.6272 2.07213Q2.7727 1.94026 2.92449 1.81569Q3.07628 1.69112 3.234 1.57414Q3.39172 1.45717 3.55499 1.34807Q3.71826 1.23898 3.88669 1.13803Q4.05512 1.03708 4.2283 0.944512Q4.40148 0.851946 4.57899 0.76799Q4.7565 0.684033 4.93791 0.608888Q5.11933 0.533742 5.30422 0.467589Q5.4891 0.401436 5.67701 0.344434Q5.86492 0.287433 6.0554 0.23972Q6.24588 0.192007 6.43847 0.153699Q6.63106 0.11539 6.8253 0.0865771Q7.01954 0.0577644 7.21496 0.0385174Q7.41038 0.0192703 7.60651 0.00963514Q7.80264 0 7.999 0L7.999 0Z" transform="translate(1.75 1.75)" id="Rectangle-2" fill="none" stroke="#FFFFFF" stroke-width="3.5" stroke-linecap="round" stroke-dasharray="109 17" />
</svg>