<?xml version="1.0" encoding="utf-8"?>
<!-- Generator: Adobe Illustrator 20.0.0, SVG Export Plug-In . SVG Version: 6.00 Build 0)  -->
<svg version="1.1" id="Layer_1" xmlns="http://www.w3.org/2000/svg" xmlns:xlink="http://www.w3.org/1999/xlink" x="0px" y="0px"
	 viewBox="0 0 12.8 9.8" style="enable-background:new 0 0 12.8 9.8;" xml:space="preserve">
<style type="text/css">
	.st0{fill:#FFFFFF;}
</style>
<image style="display:none;overflow:visible;" width="626" height="208" xlink:href="C:\Users\andre\Downloads\whale-icon-set-flat-style_96318-3020.jpg"  transform="matrix(0.1442 0 0 0.1442 -46.1651 -17.3917)">
</image>
<path class="st0" d="M2.7,3.8c1.6,0,2.3,0.9,3.7,0.7c1.2-0.1,2.2-0.6,2.9-1.2C9.7,3,9.8,2.6,9.7,2.2C9.6,1.7,9.7,1.3,9.9,1.2
	c0.1-0.2,0.2,0,0.2,0.1c0,0.5,0.4,0.5,0.4,1.1c0.2,0.3,1.4-0.3,1.8,0.6c0.1,0.3-0.1,0.2-0.2,0.2c-0.5-0.1-1.3-0.1-1.5,0
	c-0.2,0.1-0.4,0.3-0.5,0.5c-0.4,0.8-1.5,3-2.6,3.4c0.1,0.3,0.3,0.7,0.5,1c0.1,0.1,0,0.2-0.2,0.2C7.6,8.2,7,8,6.4,7.5
	C6.3,7.6,6,7.6,6,7.6C6,8,6.3,8.6,6.5,9c0.1,0.2,0,0.3-0.2,0.2C5.9,9,5.2,8.7,4.5,8C4.3,7.8,4.1,7.7,3.8,7.7c-0.9,0-2.7-0.1-3.1-1.4
	C0.2,4.9,1.2,3.8,2.7,3.8z"/>
</svg>
