<?xml version="1.0" encoding="UTF-8" standalone="no"?><!DOCTYPE svg PUBLIC "-//W3C//DTD SVG 1.1//EN" "http://www.w3.org/Graphics/SVG/1.1/DTD/svg11.dtd"><svg width="100%" height="100%" viewBox="0 0 288 288" version="1.1" xmlns="http://www.w3.org/2000/svg" xmlns:xlink="http://www.w3.org/1999/xlink" xml:space="preserve" xmlns:serif="http://www.serif.com/" style="fill-rule:evenodd;clip-rule:evenodd;stroke-linecap:round;stroke-linejoin:round;stroke-miterlimit:1.5;"><ellipse cx="143.463" cy="143.724" rx="140.736" ry="140.046" style="fill:#757575;"/><path d="M143.463,3.678c77.675,0 140.737,62.753 140.737,140.046c-0,77.294 -63.062,140.046 -140.737,140.046c-40.982,0 -48.746,-45.812 -74.477,-73.669c-23.036,-24.941 -66.259,-29.865 -66.259,-66.377c0,-77.293 63.062,-140.046 140.736,-140.046Z" style="stroke:url(#_Linear1);stroke-width:5px;"/><path d="M244.525,141.491c-0,-17.851 -14.492,-32.343 -32.343,-32.343l-136.525,0c-17.85,0 -32.342,14.492 -32.342,32.343c-0,17.85 14.492,32.342 32.342,32.342l136.525,0c17.851,0 32.343,-14.492 32.343,-32.342Z" style="fill:#757575;"/><path d="M168.366,56.165c-12.234,-13.055 -32.813,-13.774 -45.928,-1.604l-68.433,63.502c-13.115,12.169 -13.83,32.648 -1.596,45.703c12.234,13.055 32.814,13.774 45.928,1.604l68.433,-63.502c13.115,-12.169 13.83,-32.648 1.596,-45.703Z" style="fill:#b2b2b2;"/><g><path d="M165.699,58.647c-11.022,-11.775 -29.578,-12.431 -41.411,-1.463c-11.834,10.968 -12.493,29.432 -1.471,41.208l0.051,0.054c11.022,11.775 29.577,12.431 41.411,1.463c11.833,-10.968 12.492,-29.432 1.47,-41.208l-0.05,-0.054Z" style="fill-opacity:0.25;"/></g><g><path d="M96.894,122.446c-11.022,-11.775 -29.577,-12.431 -41.411,-1.463c-11.833,10.967 -12.492,29.432 -1.47,41.208l0.05,0.053c11.022,11.776 29.578,12.431 41.411,1.464c11.834,-10.968 12.493,-29.433 1.471,-41.208l-0.051,-0.054Z" style="fill-opacity:0.25;"/></g><path d="M235.526,119.853c-12.234,-13.055 -32.813,-13.774 -45.928,-1.605l-68.433,63.502c-13.115,12.17 -13.83,32.649 -1.596,45.704c12.234,13.055 32.814,13.774 45.928,1.604l68.434,-63.502c13.114,-12.17 13.829,-32.649 1.595,-45.703Z" style="fill:#b2b2b2;"/><g id="Button-V" serif:id="Button V"><path d="M233.722,121.353c-11.022,-11.776 -29.577,-12.432 -41.411,-1.464c-11.833,10.968 -12.492,29.433 -1.47,41.208l0.05,0.054c11.022,11.775 29.578,12.431 41.411,1.464c11.834,-10.968 12.493,-29.433 1.471,-41.208l-0.051,-0.054Z" style="fill-opacity:0.25;"/><path d="M233.722,121.353c-11.022,-11.776 -29.577,-12.432 -41.411,-1.464c-11.833,10.968 -12.492,29.433 -1.47,41.208l0.05,0.054c11.022,11.775 29.578,12.431 41.411,1.464c11.834,-10.968 12.493,-29.433 1.471,-41.208l-0.051,-0.054Z" style="fill-opacity:0.25;"/><path d="M233.722,121.353c-11.022,-11.776 -29.577,-12.432 -41.411,-1.464c-11.833,10.968 -12.492,29.433 -1.47,41.208l0.05,0.054c11.022,11.775 29.578,12.431 41.411,1.464c11.834,-10.968 12.493,-29.433 1.471,-41.208l-0.051,-0.054Z" style="fill-opacity:0.25;"/><path d="M233.722,121.353c-11.022,-11.776 -29.577,-12.432 -41.411,-1.464c-11.833,10.968 -12.492,29.433 -1.47,41.208l0.05,0.054c11.022,11.775 29.578,12.431 41.411,1.464c11.834,-10.968 12.493,-29.433 1.471,-41.208l-0.051,-0.054Z" style="fill-opacity:0.25;"/><path d="M233.722,121.353c-11.022,-11.776 -29.577,-12.432 -41.411,-1.464c-11.833,10.968 -12.492,29.433 -1.47,41.208l0.05,0.054c11.022,11.775 29.578,12.431 41.411,1.464c11.834,-10.968 12.493,-29.433 1.471,-41.208l-0.051,-0.054Z" style="fill-opacity:0.25;"/></g><g id="Button-V1" serif:id="Button V"><path d="M164.918,185.151c-11.022,-11.775 -29.578,-12.431 -41.411,-1.463c-11.834,10.968 -12.492,29.432 -1.471,41.208l0.051,0.054c11.022,11.775 29.577,12.431 41.411,1.463c11.833,-10.968 12.492,-29.432 1.47,-41.208l-0.05,-0.054Z" style="fill-opacity:0.25;"/><path d="M164.918,185.151c-11.022,-11.775 -29.578,-12.431 -41.411,-1.463c-11.834,10.968 -12.492,29.432 -1.471,41.208l0.051,0.054c11.022,11.775 29.577,12.431 41.411,1.463c11.833,-10.968 12.492,-29.432 1.47,-41.208l-0.05,-0.054Z" style="fill-opacity:0.25;"/><path d="M164.918,185.151c-11.022,-11.775 -29.578,-12.431 -41.411,-1.463c-11.834,10.968 -12.492,29.432 -1.471,41.208l0.051,0.054c11.022,11.775 29.577,12.431 41.411,1.463c11.833,-10.968 12.492,-29.432 1.47,-41.208l-0.05,-0.054Z" style="fill-opacity:0.25;"/><path d="M164.918,185.151c-11.022,-11.775 -29.578,-12.431 -41.411,-1.463c-11.834,10.968 -12.492,29.432 -1.471,41.208l0.051,0.054c11.022,11.775 29.577,12.431 41.411,1.463c11.833,-10.968 12.492,-29.432 1.47,-41.208l-0.05,-0.054Z" style="fill-opacity:0.25;"/><path d="M164.918,185.151c-11.022,-11.775 -29.578,-12.431 -41.411,-1.463c-11.834,10.968 -12.492,29.432 -1.471,41.208l0.051,0.054c11.022,11.775 29.577,12.431 41.411,1.463c11.833,-10.968 12.492,-29.432 1.47,-41.208l-0.05,-0.054Z" style="fill-opacity:0.25;"/></g><defs><linearGradient id="_Linear1" x1="0" y1="0" x2="1" y2="0" gradientUnits="userSpaceOnUse" gradientTransform="matrix(281.473,0,0,280.092,2.72716,143.724)"><stop offset="0" style="stop-color:#fff;stop-opacity:1"/><stop offset="0.05" style="stop-color:#d7d7d7;stop-opacity:1"/><stop offset="0.67" style="stop-color:#434343;stop-opacity:1"/><stop offset="1" style="stop-color:#1f1f1f;stop-opacity:1"/></linearGradient></defs></svg>