<?xml version="1.0" encoding="utf-8"?>
<!-- Generator: Adobe Illustrator 20.0.0, SVG Export Plug-In . SVG Version: 6.00 Build 0)  -->
<svg version="1.1" id="Layer_1" xmlns="http://www.w3.org/2000/svg" xmlns:xlink="http://www.w3.org/1999/xlink" x="0px" y="0px"
	 viewBox="0 0 494.9 318.7" style="enable-background:new 0 0 494.9 318.7;" xml:space="preserve">
<style type="text/css">
	.st0{fill:#FFFFFF;}
</style>
<path class="st0" d="M449,168.3c-18.7-11.4-4.1-45.4-8-66.9C434.1,63.2,411.1,9.1,337.2-0.1c-52.4-5.3-111.9,18.4-131.5,41.2
	c-15.3,17.8-38,27.1-61.5,26.6c-9.8-0.2-21.2,2.1-33.5,9.1C98.1,84.3,88.6,96,83.9,109.9c-6.1,18.1-19.1,33-35.6,42.6
	c-22.5,13-48.3,38-48.3,84.1c1.8,81.3,87.7,82.1,87.7,82.1h315.8c0,0,73.8,0.1,89.5-68.5c1.3-5.8,1.9-11.8,1.9-17.7
	C494.5,190.3,469.9,181.1,449,168.3z"/>
</svg>
