<?xml version="1.0" encoding="utf-8"?>
<!-- Generator: Adobe Illustrator 20.0.0, SVG Export Plug-In . SVG Version: 6.00 Build 0)  -->
<svg version="1.1" id="Layer_1" xmlns="http://www.w3.org/2000/svg" xmlns:xlink="http://www.w3.org/1999/xlink" x="0px" y="0px"
	 viewBox="0 0 429.7 476.1" style="enable-background:new 0 0 429.7 476.1;" xml:space="preserve">
<style type="text/css">
	.st0{fill:#FFFFFF;}
</style>
<title>Calendar Star</title>
<path class="st0" d="M115,98.5c-17.8,0-32.3-14.5-32.3-32.3v0V32.9c0-16.8,13.7-32.1,30.5-33.1c18.9-1.1,34.6,13.8,34.6,32.5v33.9
	c-0.1,17.9-14.6,32.4-32.5,32.3H115z M313.3,98.5C295.5,98.5,281,84,281,66.2v0V32.3c0-18,14.6-32.5,32.6-32.5
	c18,0,32.5,14.6,32.5,32.5v33.9c-0.1,17.9-14.6,32.4-32.5,32.3H313.3z M369.7,164.2H60.1c-14.9,0-27,12.1-27,27l0,0v225.1
	c0,14.9,12.1,27,27,27h147.2c104.6,0,189.5-84.8,189.5-189.5v-62.6C396.7,176.3,384.6,164.2,369.7,164.2L369.7,164.2L369.7,164.2z
	 M396.7,476.1H33.1c-18.2,0-33-14.6-33.1-32.8V82.1c0.1-18.2,14.9-32.9,33.1-32.8h16.6c9.1,0,16.4,7.4,16.4,16.4l0,0
	c0.4,27.4,22.9,49.3,50.3,48.9c26.8-0.4,48.5-22,48.9-48.9l0,0c0-9.1,7.4-16.4,16.4-16.4H248c9.1,0,16.4,7.4,16.4,16.4v0l0,0
	c0.4,27.4,22.9,49.3,50.3,48.9c26.8-0.4,48.5-22,48.9-48.9l0,0c0-9.1,7.4-16.4,16.4-16.4l0,0h16.6c18.2,0,33,14.6,33.1,32.8v361.2
	C429.7,461.5,414.9,476.1,396.7,476.1L396.7,476.1z"/>
<path class="st0" d="M298,267.6h-47.4c-2.3,0-4.4-1.5-5.2-3.7l-15.8-45c-5.2-14.7-26-14.7-31.2,0l-15.8,45c-0.8,2.2-2.9,3.7-5.2,3.7
	h-46.2c-15.6,0-22.5,19.7-10.3,29.5l37.3,29.8c1.8,1.4,2.5,3.8,1.8,5.9L146,378.2c-4.6,15,12.3,27.3,25.2,18.5l39.6-27.3
	c1.9-1.3,4.4-1.3,6.3,0l39.6,27.3c12.9,8.9,29.8-3.5,25.2-18.5L268,332.8c-0.7-2.2,0.1-4.6,1.9-6l38.2-29.7
	C320.5,287.5,313.7,267.6,298,267.6z"/>
</svg>
