<?xml version="1.0" encoding="utf-8"?>
<!-- Generator: Adobe Illustrator 20.0.0, SVG Export Plug-In . SVG Version: 6.00 Build 0)  -->
<svg version="1.1" id="Layer_1" xmlns="http://www.w3.org/2000/svg" xmlns:xlink="http://www.w3.org/1999/xlink" x="0px" y="0px"
	 viewBox="0 0 494.9 318.7" style="enable-background:new 0 0 494.9 318.7;" xml:space="preserve">
<style type="text/css">
	.st0{fill:#FFFFFF;}
</style>
<title>Create Data</title>
<path class="st0" d="M448,169c-18.7-11.4-4.1-46.1-8-67.6C433.1,63.3,410.1,9.2,336.2,0c-52.4-5.3-110.9,18.3-130.5,41.1
	c-15.3,17.8-38,27.1-61.5,26.6c-9.8-0.2-21.2,2.1-33.5,9.1C98.1,84.3,88.6,96,83.9,109.9c-6.1,18.1-19.1,33-35.6,42.6
	c-22.5,13-48.3,38-48.3,84.1c1.8,81.3,87.7,82.1,87.7,82.1h315.8c0,0,73.8,0.1,89.5-68.5c1.3-5.8,1.9-11.8,1.9-17.7
	C494.5,190.3,468.9,181.8,448,169z M310.6,189.1l-50.2,50.2c-4.3,4.3-8.6,5.7-12.9,5.7c-4.2,0.1-8.4-1.4-11.5-4.3l-51.6-51.6
	c-7.2-5.7-7.2-17.2,0-24.4c5.7-7.2,17.2-7.2,24.4,0l38.7,37.3l38.7-37.3c5.7-7.2,17.2-7.2,24.4,0
	C317.7,170.4,317.7,181.9,310.6,189.1L310.6,189.1z"/>
</svg>
