<?xml version="1.0" encoding="utf-8"?>
<!-- Generator: Adobe Illustrator 20.0.0, SVG Export Plug-In . SVG Version: 6.00 Build 0)  -->
<svg version="1.1" id="Layer_1" xmlns="http://www.w3.org/2000/svg" xmlns:xlink="http://www.w3.org/1999/xlink" x="0px" y="0px"
	 viewBox="0 0 388 488" style="enable-background:new 0 0 388 488;" xml:space="preserve">
<style type="text/css">
	.st0{fill:#FFFFFF;}
</style>
<title>Export Data</title>
<path class="st0" d="M316.6,300.6H71.4c-8,0-14.4,6.5-14.4,14.4s6.5,14.4,14.4,14.4h245.2c8,0,14.4-6.5,14.4-14.4
	S324.6,300.6,316.6,300.6L316.6,300.6z M316.6,228.4H71.4c-8,0-14.4,6.5-14.4,14.4c0,8,6.5,14.4,14.4,14.4h245.2
	c8,0,14.4-6.5,14.4-14.4S324.6,228.4,316.6,228.4L316.6,228.4z M71.4,401.7h126.1c8-0.2,14.3-6.8,14.1-14.8
	c-0.2-7.7-6.4-13.9-14.1-14.1H71.4c-8,0.2-14.3,6.8-14.1,14.8C57.5,395.3,63.7,401.5,71.4,401.7L71.4,401.7z M360.5,488h-333
	C12.3,487.9,0,475.6,0,460.3V27.7C0,12.4,12.3,0.1,27.5,0h193.6c10.6,0,19.2,8.6,19.2,19.2l0,0v42.9c0,10.6-8.6,19.2-19.2,19.2H72.3
	c-8,0.2-14.3,6.8-14.1,14.8c0.2,7.7,6.4,13.9,14.1,14.1h148.8c10.6,0,19.2,8.6,19.2,19.2l0,0c0,10.6,8.6,19.2,19.2,19.2l0,0h109.3
	c10.6,0,19.2,8.6,19.2,19.2l0,0v292.6C388,475.6,375.7,487.9,360.5,488z"/>
</svg>
