<?xml version="1.0" encoding="utf-8"?>
<!-- Generator: Adobe Illustrator 20.0.0, SVG Export Plug-In . SVG Version: 6.00 Build 0)  -->
<svg version="1.1" id="Layer_1" xmlns="http://www.w3.org/2000/svg" xmlns:xlink="http://www.w3.org/1999/xlink" x="0px" y="0px"
	 viewBox="0 0 512 512" style="enable-background:new 0 0 512 512;" xml:space="preserve">
<style type="text/css">
	.st0{fill-rule:evenodd;clip-rule:evenodd;fill:#FFFFFF;}
</style>
<path class="st0" d="M331.1,334.3c-18.1,41-35,61.4-47.8,71.5c-7.5,5.9-12.5,14.4-14.2,23.8c-4.1,22.1-9.9,44.3-18.2,63.7
	c-7.5,17.5-54.3,12.8-27.9-9.8c9.6-8.2,17-26.7,22.3-49.2c2.6-11.1-2.2-22.7-11.9-28.7c-16.5-10.1-39.6-30.8-64.8-73
	c-50.4-84.3,1.2-196.4,53.2-274.1c11.7-17.4,38.4-13.5,44.4,6.6C293.6,156.6,385.8,210.4,331.1,334.3z"/>
</svg>
