<?xml version="1.0" encoding="utf-8"?>
<!-- Generator: Adobe Illustrator 20.0.0, SVG Export Plug-In . SVG Version: 6.00 Build 0)  -->
<svg version="1.1" id="Layer_1" xmlns="http://www.w3.org/2000/svg" xmlns:xlink="http://www.w3.org/1999/xlink" x="0px" y="0px"
	 viewBox="0 0 512 512" style="enable-background:new 0 0 512 512;" xml:space="preserve">
<style type="text/css">
	.st0{fill:#FFFFFF;}
</style>
<path class="st0" d="M46.9,400.4V122.2c0-4.4,4.9-6.8,8-3.9l116.6,108c6.4,6,7.3,16.3,1.8,23.4l-117.9,154
	C52.6,407.4,46.9,405.2,46.9,400.4z M262.5,291.3l37.3-34.5c6.8-6.3,17-5.4,22.6,2.1l113.1,147.7c2.6,3.4,0.3,8.4-3.8,8.4H72.9
	c-4.1,0-6.3-5-3.8-8.4l113.2-146.2c5.6-7.2,15.7-8.2,22.4-2.2l37.1,33.3C247.8,296.9,256.5,296.8,262.5,291.3z M61.4,94.9h381.7
	c4.5,0,6.6,6,3.2,9.1l-183.7,169c-5.9,5.5-14.8,5.5-20.7,0L58.2,103.9C54.8,100.8,56.9,94.9,61.4,94.9z M332.5,226.4l116.6-108
	c3.1-2.9,8-0.5,8,3.9v278.2c0,4.8-5.7,7-8.6,3.3l-117.9-154C325.2,242.7,326,232.4,332.5,226.4z"/>
</svg>
