<?xml version="1.0" encoding="utf-8"?>
<!-- Generator: Adobe Illustrator 20.0.0, SVG Export Plug-In . SVG Version: 6.00 Build 0)  -->
<svg version="1.1" id="Layer_1" xmlns="http://www.w3.org/2000/svg" xmlns:xlink="http://www.w3.org/1999/xlink" x="0px" y="0px"
	 viewBox="0 0 494.9 318.7" style="enable-background:new 0 0 494.9 318.7;" xml:space="preserve">
<style type="text/css">
	.st0{fill:#FFFFFF;}
</style>
<title>Load Data</title>
<path class="st0" d="M450,166c-18.7-11.4-10.1-43.2-14-64.7C429.1,63.2,406.1,9.1,332.2-0.1c-52.4-5.3-106.9,18.4-126.5,41.2
	c-15.3,17.8-38,27.1-61.5,26.6c-9.8-0.2-21.2,2.1-33.5,9.1C98.1,84.3,88.6,96,83.9,109.9c-6.1,18.1-19.1,33-35.6,42.6
	c-22.5,13-48.3,38-48.3,84.1c1.8,81.3,87.7,82.1,87.7,82.1h315.8c0,0,73.8,0.1,89.5-68.5c1.3-5.8,1.9-11.8,1.9-17.7
	C494.5,190.3,470.9,178.8,450,166z M311.1,233.3c-5.7,7.2-17.2,7.2-24.4,0L248,196l-38.7,37.3c-5.7,7.2-17.2,7.2-24.4,0
	c-7.2-5.7-7.2-17.2,0-24.4l50.2-50.2c4.3-4.3,8.6-5.7,12.9-5.7c4.2-0.1,8.4,1.4,11.5,4.3l51.6,51.6
	C318.3,214.6,318.3,226.1,311.1,233.3L311.1,233.3z"/>
</svg>
