<?xml version="1.0" encoding="utf-8"?>
<svg width="25px" height="12px" viewBox="0 0 25 12" version="1.1" xmlns:xlink="http://www.w3.org/1999/xlink" xmlns="http://www.w3.org/2000/svg">
  <desc>Created with Lunacy</desc>
  <path d="M5.999 0L19.001 0Q19.1483 0 19.2954 0.00722606Q19.4424 0.0144521 19.589 0.0288868Q19.7356 0.0433215 19.8812 0.0649301Q20.0269 0.0865387 20.1713 0.115269Q20.3158 0.143999 20.4586 0.179782Q20.6015 0.215565 20.7424 0.258315Q20.8833 0.301064 21.022 0.350677Q21.1607 0.40029 21.2967 0.456647Q21.4328 0.513003 21.5659 0.575968Q21.699 0.638933 21.8289 0.708354Q21.9588 0.777776 22.0851 0.853486Q22.2114 0.929196 22.3339 1.01101Q22.4563 1.09283 22.5746 1.18056Q22.6929 1.26828 22.8067 1.36171Q22.9206 1.45514 23.0297 1.55403Q23.1388 1.65293 23.2429 1.75707Q23.3471 1.8612 23.446 1.97032Q23.5449 2.07944 23.6383 2.19327Q23.7317 2.30711 23.8194 2.4254Q23.9072 2.54369 23.989 2.66613Q24.0708 2.78858 24.1465 2.9149Q24.2222 3.04121 24.2916 3.17109Q24.3611 3.30097 24.424 3.4341Q24.487 3.56722 24.5434 3.70328Q24.5997 3.83934 24.6493 3.978Q24.6989 4.11666 24.7417 4.25758Q24.7844 4.39851 24.8202 4.54136Q24.856 4.68422 24.8847 4.82865Q24.9135 4.97309 24.9351 5.11876Q24.9567 5.26444 24.9711 5.411Q24.9855 5.55755 24.9928 5.70464Q25 5.85173 25 5.999L25 6.001Q25 6.14827 24.9928 6.29536Q24.9855 6.44245 24.9711 6.589Q24.9567 6.73556 24.9351 6.88124Q24.9135 7.02691 24.8847 7.17135Q24.856 7.31578 24.8202 7.45864Q24.7844 7.60149 24.7417 7.74242Q24.6989 7.88334 24.6493 8.022Q24.5997 8.16066 24.5434 8.29672Q24.487 8.43277 24.424 8.5659Q24.3611 8.69903 24.2916 8.82891Q24.2222 8.95879 24.1465 9.0851Q24.0708 9.21142 23.989 9.33387Q23.9072 9.45631 23.8194 9.5746Q23.7317 9.69289 23.6383 9.80673Q23.5449 9.92056 23.446 10.0297Q23.3471 10.1388 23.2429 10.2429Q23.1388 10.3471 23.0297 10.446Q22.9206 10.5449 22.8067 10.6383Q22.6929 10.7317 22.5746 10.8194Q22.4563 10.9072 22.3339 10.989Q22.2114 11.0708 22.0851 11.1465Q21.9588 11.2222 21.8289 11.2916Q21.699 11.3611 21.5659 11.424Q21.4328 11.487 21.2967 11.5434Q21.1607 11.5997 21.022 11.6493Q20.8833 11.6989 20.7424 11.7417Q20.6015 11.7844 20.4586 11.8202Q20.3158 11.856 20.1713 11.8847Q20.0269 11.9135 19.8812 11.9351Q19.7356 11.9567 19.589 11.9711Q19.4424 11.9855 19.2954 11.9928Q19.1483 12 19.001 12L5.999 12Q5.85173 12 5.70464 11.9928Q5.55755 11.9855 5.411 11.9711Q5.26444 11.9567 5.11876 11.9351Q4.97309 11.9135 4.82865 11.8847Q4.68422 11.856 4.54136 11.8202Q4.39851 11.7844 4.25758 11.7417Q4.11666 11.6989 3.978 11.6493Q3.83934 11.5997 3.70328 11.5434Q3.56722 11.487 3.4341 11.424Q3.30097 11.3611 3.17109 11.2916Q3.04121 11.2222 2.9149 11.1465Q2.78858 11.0708 2.66613 10.989Q2.54369 10.9072 2.4254 10.8194Q2.30711 10.7317 2.19327 10.6383Q2.07944 10.5449 1.97032 10.446Q1.8612 10.3471 1.75707 10.2429Q1.65293 10.1388 1.55403 10.0297Q1.45514 9.92056 1.36171 9.80673Q1.26829 9.69289 1.18056 9.5746Q1.09283 9.45631 1.01101 9.33386Q0.929196 9.21142 0.853486 9.0851Q0.777776 8.95879 0.708354 8.82891Q0.638933 8.69903 0.575968 8.5659Q0.513003 8.43277 0.456647 8.29672Q0.40029 8.16066 0.350677 8.022Q0.301064 7.88334 0.258315 7.74242Q0.215565 7.60149 0.179782 7.45864Q0.143999 7.31578 0.115269 7.17135Q0.0865387 7.02691 0.0649301 6.88124Q0.0433215 6.73556 0.0288868 6.589Q0.0144521 6.44245 0.00722606 6.29536Q0 6.14827 0 6.001L0 5.999Q0 5.85173 0.00722606 5.70464Q0.0144521 5.55755 0.0288868 5.411Q0.0433215 5.26444 0.0649301 5.11876Q0.0865387 4.97309 0.115269 4.82865Q0.143999 4.68422 0.179782 4.54136Q0.215565 4.39851 0.258315 4.25758Q0.301064 4.11666 0.350677 3.978Q0.40029 3.83934 0.456647 3.70328Q0.513003 3.56722 0.575968 3.4341Q0.638933 3.30097 0.708354 3.17109Q0.777776 3.04121 0.853486 2.9149Q0.929196 2.78858 1.01101 2.66613Q1.09283 2.54369 1.18056 2.4254Q1.26828 2.30711 1.36171 2.19327Q1.45514 2.07944 1.55403 1.97032Q1.65293 1.8612 1.75707 1.75707Q1.8612 1.65293 1.97032 1.55403Q2.07944 1.45514 2.19327 1.36171Q2.30711 1.26829 2.4254 1.18056Q2.54369 1.09283 2.66613 1.01101Q2.78858 0.929196 2.9149 0.853486Q3.04121 0.777776 3.17109 0.708354Q3.30097 0.638933 3.4341 0.575968Q3.56722 0.513003 3.70328 0.456647Q3.83934 0.40029 3.978 0.350677Q4.11666 0.301064 4.25758 0.258315Q4.39851 0.215565 4.54136 0.179782Q4.68422 0.143999 4.82865 0.115269Q4.97309 0.0865387 5.11876 0.0649301Q5.26444 0.0433215 5.411 0.0288868Q5.55755 0.0144521 5.70464 0.00722606Q5.85173 0 5.999 0L5.999 0Z" id="Rectangle" fill="#FFFFFF" stroke="none" />
</svg>