<?xml version="1.0" encoding="utf-8"?>
<!-- Generator: Adobe Illustrator 20.0.0, SVG Export Plug-In . SVG Version: 6.00 Build 0)  -->
<svg version="1.1" id="Layer_1" xmlns="http://www.w3.org/2000/svg" xmlns:xlink="http://www.w3.org/1999/xlink" x="0px" y="0px"
	 viewBox="0 0 512 512" style="enable-background:new 0 0 512 512;" xml:space="preserve">
<style type="text/css">
	.st0{fill:#FFFFFF;}
</style>
<path class="st0" d="M464.8,214v205.5c0,6.4-5.2,11.5-11.5,11.5H57.8c-6.4,0-11.5-5.2-11.5-11.5V213.6c0-10.9-8.9-19.8-19.8-19.8
	l0,0c-6.4,0-11.5-5.2-11.5-11.5v-42.8c0-6.4,5.2-11.5,11.5-11.5h19.8h418.5H485c6.4,0,11.5,5.2,11.5,11.5v42.8
	c0,6.4-5.2,11.5-11.5,11.5l0,0C473.8,193.8,464.8,202.8,464.8,214z M368.3,112.9h-91.2c-6.4,0-11.5-5.2-11.5-11.5v-2.9
	c0-3.8,1.9-7.4,5-9.5C294,73,391.3,10.4,406.9,61.9C414.6,87.3,394.9,112.9,368.3,112.9z M112.5,61.9c15.7-51.5,112.8,11.1,136.2,27
	c3.1,2.1,5,5.7,5,9.5v2.9c0,6.4-5.2,11.5-11.5,11.5c-19.8,0-61,0-91.2,0C124.4,112.9,104.7,87.3,112.5,61.9z"/>
</svg>
