<?xml version="1.0" encoding="utf-8"?>
<svg width="480px" height="730px" viewBox="0 0 480 730" version="1.1" xmlns:xlink="http://www.w3.org/1999/xlink" xmlns="http://www.w3.org/2000/svg">
  <desc>Created with Lunacy</desc>
  <path d="M23 0L457 0Q457.589 0 458.174 0.0268123Q458.76 0.0536245 459.34 0.107194Q459.92 0.160764 460.493 0.240982Q461.067 0.3212 461.633 0.427903Q462.199 0.534606 462.757 0.667575Q463.314 0.800545 463.862 0.95951Q464.41 1.11848 464.947 1.30311Q465.484 1.48775 466.008 1.69768Q466.533 1.90761 467.045 2.14241Q467.557 2.37721 468.054 2.63639Q468.552 2.89558 469.035 3.17862Q469.517 3.46167 469.983 3.76799Q470.45 4.07432 470.899 4.4033Q471.348 4.73228 471.78 5.08324Q472.211 5.43421 472.623 5.80645Q473.036 6.17868 473.429 6.57143Q473.821 6.96417 474.194 7.37663Q474.566 7.78908 474.917 8.2204Q475.268 8.65172 475.597 9.10103Q475.926 9.55034 476.232 10.0167Q476.538 10.4831 476.821 10.9656Q477.104 11.4481 477.364 11.9457Q477.623 12.4434 477.858 12.9551Q478.092 13.4669 478.302 13.9917Q478.512 14.5165 478.697 15.0534Q478.882 15.5902 479.041 16.1379Q479.199 16.6857 479.332 17.2432Q479.465 17.8007 479.572 18.3669Q479.679 18.9331 479.759 19.5068Q479.839 20.0805 479.893 20.6605Q479.946 21.2406 479.973 21.8257Q480 22.4109 480 23L480 707Q480 707.589 479.973 708.174Q479.946 708.76 479.893 709.34Q479.839 709.92 479.759 710.493Q479.679 711.067 479.572 711.633Q479.465 712.199 479.332 712.757Q479.199 713.315 479.041 713.862Q478.882 714.41 478.697 714.947Q478.512 715.484 478.302 716.008Q478.092 716.533 477.858 717.045Q477.623 717.557 477.364 718.054Q477.104 718.552 476.821 719.035Q476.538 719.517 476.232 719.983Q475.926 720.45 475.597 720.899Q475.268 721.348 474.917 721.78Q474.566 722.211 474.194 722.623Q473.821 723.036 473.429 723.429Q473.036 723.821 472.623 724.194Q472.211 724.566 471.78 724.917Q471.348 725.268 470.899 725.597Q470.45 725.926 469.983 726.232Q469.517 726.538 469.034 726.821Q468.552 727.104 468.054 727.364Q467.557 727.623 467.045 727.858Q466.533 728.092 466.008 728.302Q465.484 728.512 464.947 728.697Q464.41 728.882 463.862 729.04Q463.314 729.199 462.757 729.332Q462.199 729.465 461.633 729.572Q461.067 729.679 460.493 729.759Q459.92 729.839 459.34 729.893Q458.76 729.946 458.174 729.973Q457.589 730 457 730L23 730Q22.4109 730 21.8257 729.973Q21.2406 729.946 20.6605 729.893Q20.0805 729.839 19.5068 729.759Q18.9331 729.679 18.3669 729.572Q17.8008 729.465 17.2432 729.333Q16.6857 729.2 16.1379 729.041Q15.5902 728.882 15.0534 728.697Q14.5165 728.512 13.9917 728.302Q13.4669 728.093 12.9551 727.858Q12.4434 727.623 11.9457 727.364Q11.4481 727.104 10.9656 726.821Q10.4831 726.538 10.0167 726.232Q9.55034 725.926 9.10103 725.597Q8.65172 725.268 8.2204 724.917Q7.78908 724.566 7.37663 724.194Q6.96417 723.821 6.57143 723.429Q6.17868 723.036 5.80645 722.623Q5.43421 722.211 5.08324 721.78Q4.73228 721.348 4.4033 720.899Q4.07432 720.45 3.76799 719.983Q3.46167 719.517 3.17862 719.034Q2.89558 718.552 2.63639 718.054Q2.37721 717.557 2.14241 717.045Q1.90761 716.533 1.69768 716.008Q1.48775 715.484 1.30311 714.947Q1.11848 714.41 0.95951 713.862Q0.800545 713.314 0.667575 712.757Q0.534606 712.199 0.427903 711.633Q0.3212 711.067 0.240982 710.493Q0.160764 709.92 0.107194 709.34Q0.0536245 708.76 0.0268123 708.174Q0 707.589 0 707L0 23Q0 22.4109 0.0268123 21.8257Q0.0536245 21.2406 0.107194 20.6605Q0.160764 20.0805 0.240982 19.5068Q0.3212 18.9331 0.427903 18.3669Q0.534606 17.8008 0.667575 17.2432Q0.800545 16.6857 0.95951 16.1379Q1.11848 15.5902 1.30311 15.0534Q1.48775 14.5165 1.69768 13.9917Q1.90761 13.4669 2.14241 12.9551Q2.37721 12.4434 2.63639 11.9457Q2.89558 11.4481 3.17862 10.9656Q3.46167 10.4831 3.76799 10.0167Q4.07432 9.55034 4.4033 9.10103Q4.73228 8.65172 5.08324 8.2204Q5.43421 7.78908 5.80645 7.37663Q6.17868 6.96417 6.57143 6.57143Q6.96417 6.17868 7.37663 5.80645Q7.78908 5.43421 8.2204 5.08324Q8.65172 4.73228 9.10103 4.4033Q9.55034 4.07432 10.0167 3.76799Q10.4831 3.46167 10.9656 3.17862Q11.4481 2.89558 11.9457 2.63639Q12.4434 2.37721 12.9551 2.14241Q13.4669 1.90761 13.9917 1.69768Q14.5165 1.48775 15.0534 1.30311Q15.5902 1.11848 16.1379 0.95951Q16.6857 0.800545 17.2432 0.667575Q17.8007 0.534606 18.3669 0.427903Q18.9331 0.3212 19.5068 0.240982Q20.0805 0.160764 20.6605 0.107194Q21.2406 0.0536245 21.8257 0.0268123Q22.4109 0 23 0Z" id="Rectangle" fill="#FFFFFF" stroke="none" />
</svg>