<?xml version="1.0" encoding="utf-8"?>
<!-- Generator: Adobe Illustrator 20.0.0, SVG Export Plug-In . SVG Version: 6.00 Build 0)  -->
<svg version="1.1" id="Layer_1" xmlns="http://www.w3.org/2000/svg" xmlns:xlink="http://www.w3.org/1999/xlink" x="0px" y="0px"
	 viewBox="0 0 512 512" style="enable-background:new 0 0 512 512;" xml:space="preserve">
<style type="text/css">
	.st0{fill:#FFFFFF;}
</style>
<path class="st0" d="M393,390c36.6-30.9-33.3-128.2-137.2-128.4S102,372.3,141.9,404c48,15,78.6-16.3,123.6-15.3
	C315.6,389.8,347.4,431,393,390z M451.8,203.3c-25-8.5-58.1,8.2-73.8,37.3c-15.7,29.1-8,59.6,17,68.1c25,8.5,58.1-8.2,73.8-37.3
	C484.5,242.3,476.9,211.8,451.8,203.3z M81.1,203.9c-23,7.3-30.9,34.9-17.5,61.7c13.4,26.8,43,42.6,66.1,35.3
	c23-7.3,30.9-34.9,17.5-61.7C133.8,212.5,104.2,196.7,81.1,203.9z M181.1,107.6c-27.9,3.6-44.8,35.2-37.6,70.8
	c7.2,35.6,35.6,61.5,63.5,57.9c27.9-3.6,44.8-35.2,37.6-70.8C237.5,130,209.1,104.1,181.1,107.6z M377.2,182
	c-12.4,34.6-44.5,57.5-71.6,51.4c-27.1-6.1-39-39.1-26.5-73.7c12.4-34.6,44.5-57.5,71.6-51.4C377.7,114.4,389.6,147.4,377.2,182z"/>
</svg>
