<?xml version="1.0" encoding="UTF-8" standalone="no"?><!DOCTYPE svg PUBLIC "-//W3C//DTD SVG 1.1//EN" "http://www.w3.org/Graphics/SVG/1.1/DTD/svg11.dtd"><svg width="100%" height="100%" viewBox="0 0 1200 1200" version="1.1" xmlns="http://www.w3.org/2000/svg" xmlns:xlink="http://www.w3.org/1999/xlink" xml:space="preserve" xmlns:serif="http://www.serif.com/" style="fill-rule:evenodd;clip-rule:evenodd;stroke-linecap:round;stroke-linejoin:round;stroke-miterlimit:1.5;"><ellipse cx="597.764" cy="598.85" rx="586.401" ry="583.525" style="fill:#757575;"/><path d="M597.764,15.326c323.644,-0 586.401,261.468 586.401,583.524c0,322.057 -262.757,583.525 -586.401,583.525c-170.76,0 -203.11,-190.885 -310.32,-306.956c-95.987,-103.919 -276.081,-124.435 -276.081,-276.569c0,-322.056 262.758,-583.524 586.401,-583.524Z" style="stroke:url(#_Linear1);stroke-width:20.83px;"/><path d="M1018.85,589.544c0,-74.376 -60.384,-134.76 -134.76,-134.76l-568.855,0c-74.376,0 -134.76,60.384 -134.76,134.76c-0,74.376 60.384,134.76 134.76,134.76l568.855,0c74.376,0 134.76,-60.384 134.76,-134.76Z" style="fill:#757575;"/><path d="M701.526,234.02c-50.975,-54.395 -136.724,-57.39 -191.368,-6.684l-285.138,264.592c-54.644,50.707 -57.623,136.036 -6.649,190.431c50.974,54.395 136.723,57.39 191.367,6.684l285.139,-264.592c54.644,-50.706 57.623,-136.036 6.649,-190.431Z" style="fill:#b2b2b2;"/><g><path d="M690.412,244.363c-45.925,-49.063 -123.239,-51.796 -172.546,-6.096c-49.306,45.698 -52.052,122.634 -6.127,171.699l0.211,0.224c45.923,49.064 123.239,51.796 172.545,6.098c49.305,-45.7 52.052,-122.635 6.127,-171.699l-0.21,-0.226Z" style="fill-opacity:0.25;"/></g><g><path d="M403.727,510.191c-45.925,-49.063 -123.239,-51.796 -172.546,-6.096c-49.306,45.698 -52.052,122.634 -6.127,171.699l0.211,0.224c45.923,49.064 123.239,51.796 172.545,6.098c49.305,-45.7 52.052,-122.635 6.127,-171.699l-0.21,-0.226Z" style="fill-opacity:0.25;"/></g><path d="M981.36,499.386c-50.975,-54.396 -136.723,-57.39 -191.367,-6.684l-285.139,264.592c-54.644,50.706 -57.623,136.035 -6.649,190.431c50.975,54.395 136.724,57.39 191.368,6.683l285.138,-264.591c54.644,-50.707 57.623,-136.036 6.649,-190.431Z" style="fill:#b2b2b2;"/><g id="Button-V" serif:id="Button V"><path d="M973.843,505.636c-45.925,-49.063 -123.239,-51.796 -172.546,-6.097c-49.306,45.698 -52.052,122.635 -6.127,171.699l0.211,0.224c45.923,49.065 123.239,51.797 172.545,6.098c49.305,-45.699 52.052,-122.634 6.127,-171.699l-0.21,-0.225Z" style="fill-opacity:0.25;"/><path d="M973.843,505.636c-45.925,-49.063 -123.239,-51.796 -172.546,-6.097c-49.306,45.698 -52.052,122.635 -6.127,171.699l0.211,0.224c45.923,49.065 123.239,51.797 172.545,6.098c49.305,-45.699 52.052,-122.634 6.127,-171.699l-0.21,-0.225Z" style="fill-opacity:0.25;"/><path d="M973.843,505.636c-45.925,-49.063 -123.239,-51.796 -172.546,-6.097c-49.306,45.698 -52.052,122.635 -6.127,171.699l0.211,0.224c45.923,49.065 123.239,51.797 172.545,6.098c49.305,-45.699 52.052,-122.634 6.127,-171.699l-0.21,-0.225Z" style="fill-opacity:0.25;"/><path d="M973.843,505.636c-45.925,-49.063 -123.239,-51.796 -172.546,-6.097c-49.306,45.698 -52.052,122.635 -6.127,171.699l0.211,0.224c45.923,49.065 123.239,51.797 172.545,6.098c49.305,-45.699 52.052,-122.634 6.127,-171.699l-0.21,-0.225Z" style="fill-opacity:0.25;"/><path d="M973.843,505.636c-45.925,-49.063 -123.239,-51.796 -172.546,-6.097c-49.306,45.698 -52.052,122.635 -6.127,171.699l0.211,0.224c45.923,49.065 123.239,51.797 172.545,6.098c49.305,-45.699 52.052,-122.634 6.127,-171.699l-0.21,-0.225Z" style="fill-opacity:0.25;"/></g><g id="Button-V1" serif:id="Button V"><path d="M687.158,771.464c-45.925,-49.063 -123.239,-51.796 -172.546,-6.097c-49.306,45.698 -52.052,122.635 -6.127,171.699l0.211,0.224c45.923,49.065 123.239,51.797 172.545,6.098c49.305,-45.699 52.052,-122.634 6.127,-171.699l-0.21,-0.225Z" style="fill-opacity:0.25;"/><path d="M687.158,771.464c-45.925,-49.063 -123.239,-51.796 -172.546,-6.097c-49.306,45.698 -52.052,122.635 -6.127,171.699l0.211,0.224c45.923,49.065 123.239,51.797 172.545,6.098c49.305,-45.699 52.052,-122.634 6.127,-171.699l-0.21,-0.225Z" style="fill-opacity:0.25;"/><path d="M687.158,771.464c-45.925,-49.063 -123.239,-51.796 -172.546,-6.097c-49.306,45.698 -52.052,122.635 -6.127,171.699l0.211,0.224c45.923,49.065 123.239,51.797 172.545,6.098c49.305,-45.699 52.052,-122.634 6.127,-171.699l-0.21,-0.225Z" style="fill-opacity:0.25;"/><path d="M687.158,771.464c-45.925,-49.063 -123.239,-51.796 -172.546,-6.097c-49.306,45.698 -52.052,122.635 -6.127,171.699l0.211,0.224c45.923,49.065 123.239,51.797 172.545,6.098c49.305,-45.699 52.052,-122.634 6.127,-171.699l-0.21,-0.225Z" style="fill-opacity:0.25;"/><path d="M687.158,771.464c-45.925,-49.063 -123.239,-51.796 -172.546,-6.097c-49.306,45.698 -52.052,122.635 -6.127,171.699l0.211,0.224c45.923,49.065 123.239,51.797 172.545,6.098c49.305,-45.699 52.052,-122.634 6.127,-171.699l-0.21,-0.225Z" style="fill-opacity:0.25;"/></g><defs><linearGradient id="_Linear1" x1="0" y1="0" x2="1" y2="0" gradientUnits="userSpaceOnUse" gradientTransform="matrix(1172.8,0,0,1167.05,11.3632,598.85)"><stop offset="0" style="stop-color:#fff;stop-opacity:1"/><stop offset="0.05" style="stop-color:#d7d7d7;stop-opacity:1"/><stop offset="0.67" style="stop-color:#434343;stop-opacity:1"/><stop offset="1" style="stop-color:#1f1f1f;stop-opacity:1"/></linearGradient></defs></svg>