<?xml version="1.0" encoding="utf-8"?>
<!-- Generator: Adobe Illustrator 20.0.0, SVG Export Plug-In . SVG Version: 6.00 Build 0)  -->
<svg version="1.1" id="Layer_1" xmlns="http://www.w3.org/2000/svg" xmlns:xlink="http://www.w3.org/1999/xlink" x="0px" y="0px"
	 viewBox="0 0 512 512" style="enable-background:new 0 0 512 512;" xml:space="preserve">
<style type="text/css">
	.st0{fill:#FFFFFF;}
</style>
<path class="st0" d="M243,70C110.5,70,16,163,16,230.4c0,50.9,30,96.7,77.9,128.6c11.3,7.5,15,22.4,8.3,34.3
	c-0.2,0.4-0.4,0.8-0.6,1.1c-11.8,21,9,45.4,31.6,36.9c29.5-11,60.4-22.5,73.1-27.3c3.8-1.4,7.9-1.9,12-1.5
	c12.3,1.4,24.9,2.1,37.7,2.1c132.5,0,214-110.6,214-174.4C470,147,375.5,70,243,70z"/>
</svg>
