<?xml version="1.0" encoding="utf-8"?>
<!-- Generator: Adobe Illustrator 20.0.0, SVG Export Plug-In . SVG Version: 6.00 Build 0)  -->
<svg version="1.1" id="Layer_1" xmlns="http://www.w3.org/2000/svg" xmlns:xlink="http://www.w3.org/1999/xlink" x="0px" y="0px"
	 viewBox="0 0 479.9 444" style="enable-background:new 0 0 479.9 444;" xml:space="preserve">
<style type="text/css">
	.st0{fill:#FFFFFF;}
</style>
<title>icon 38</title>
<g>
	<path class="st0" d="M104.3,322.4c-23.4,29.3-43,57.5-55.6,82.3v1.3c0,9.1,7.4,16.5,16.5,16.5c0,0,11.2,4,80.8-54.5
		C144.5,367.4,108.5,353.8,104.3,322.4z"/>
	<path class="st0" d="M145.5,273.5c-2.3,2.7-4.4,5.3-6.7,7.9c25.1-27.4,79.7-86.1,139.9-144.4l3.8-3.6
		c14.7-14.2,29.7-28.3,44.7-41.9c14.2-12.8,11-35.9-6.2-44.2c-20.8-10.1-44.5-17.3-71.3-20.7C31.2-1.3,1.6,172.5,1.6,172.5
		c-4,29.7,0,50,6.3,63.6c7.5,16.1,23.9,26.2,41.6,26.2C72.3,262.3,114.6,263.8,145.5,273.5z M201,128.1c12.3,0,22.2,9.9,22.3,22.2
		c0,12.8-10.7,23-23.6,22.2c-11.1-0.7-20.1-9.7-20.8-20.7C178.1,138.9,188.3,128.1,201,128.1z M114.2,107.9
		c17.9-0.1,32.4,14.4,32.4,32.3c0,18.6-15.7,33.6-34.6,32.3c-15.9-1.1-28.9-14-30-29.9C80.7,123.7,95.6,108,114.2,107.9z"/>
</g>
<path class="st0" d="M411.3,113c0,0,28.2-28.9,50.6-70.7c8.3-15.6-7.7-33-23.9-25.8c-24.6,11-55.2,26.9-78,46.7
	c0.6,1.3,10.3,20.4,33.1,36.9c9.4,6.8,10.6,20.5,2.4,28.8c-44.7,45.4-166.1,168-223,216.1c0,0-36-21.8-48-46.9
	c-4.3,5.1-9,10.2-13.1,15.3l3-3.4c0,0,11.3,43.7,45.9,46.3l-2.7,2.5c-36.5,62.6-0.7,75.2-0.7,75.2c150.1,34.2,222.6-29.2,222.6-29.2
	c67.3-48.1,84.6-182.7,27.5-278.1c-2-3.4-1.6-7.7,1.2-10.5C409.2,115.1,410.3,114.1,411.3,113z M309.7,337.2
	c-8.4,0-15.2-7.2-14.7-15.8c0.5-7.3,6.4-13.3,13.8-13.8c8.6-0.5,15.7,6.3,15.7,14.8C324.5,330.6,317.9,337.2,309.7,337.2z
	 M319.7,273.9c-8.4,0-15.2-7.2-14.7-15.8c0.5-7.3,6.4-13.3,13.8-13.8c8.6-0.5,15.7,6.3,15.7,14.8
	C334.5,267.3,327.9,273.9,319.7,273.9z"/>
</svg>
