<?xml version="1.0" encoding="utf-8"?>
<!-- Generator: Adobe Illustrator 20.0.0, SVG Export Plug-In . SVG Version: 6.00 Build 0)  -->
<svg version="1.1" id="Layer_1" xmlns="http://www.w3.org/2000/svg" xmlns:xlink="http://www.w3.org/1999/xlink" x="0px" y="0px"
	 viewBox="0 0 512 512" style="enable-background:new 0 0 512 512;" xml:space="preserve">
<style type="text/css">
	.st0{fill:#FFFFFF;}
</style>
<g>
	<g>
		<path id="SVGID_1_" class="st0" d="M117.4,304.8c9.7-73.6,32.8-213.2,73.6-269.4c12.2-16.8,38.6-9.7,40.8,10.9L245.7,176l13.2,123
			c3.4,31.4-22,58.3-53.5,57l-46.7-2C133.2,352.8,114.1,330.1,117.4,304.8z M40.7,433.2l-6.3-23.9c-5.5-20.7,12.9-39.9,33.9-35.3
			c138,49,303.2,26,392.5,26.6c18.5,0.1,24.6,24.9,8.3,33.6c-20.4,11.6-54.1,58.8-346.8,58.7C84.4,494.7,50.4,469.8,40.7,433.2z"/>
	</g>
</g>
<path class="st0" d="M360.3,371.3l-32.1,7.7c-21.7,5.2-42.5-7.5-44-27l-5.8-76.1l-6.1-80.2c-1-12.7,16.4-20.7,26.9-12.3
	c35.1,28.2,68,109.3,83.6,152.3C388.2,350.7,377.8,367,360.3,371.3z"/>
</svg>
