<?xml version="1.0" encoding="utf-8"?>
<!-- Generator: Adobe Illustrator 20.0.0, SVG Export Plug-In . SVG Version: 6.00 Build 0)  -->
<svg version="1.1" id="Layer_1" xmlns="http://www.w3.org/2000/svg" xmlns:xlink="http://www.w3.org/1999/xlink" x="0px" y="0px"
	 viewBox="0 0 368 568" style="enable-background:new 0 0 368 568;" xml:space="preserve">
<style type="text/css">
	.st0{fill:#FFFFFF;}
</style>
<title>icon 62</title>
<path class="st0" d="M285.5,357.9h46.2c6.2,0,9.5-7.2,5.5-11.9l-73-102.6c-4-4.7-0.7-11.9,5.5-11.9h20.7c6.3,0,9.5-7.4,5.3-12
	l-70.2-90.6c-4.2-4.6-0.9-12,5.3-12l0,0c5.9,0,9.3-6.8,5.8-11.6L189.7,33c-2.9-3.8-8.6-3.8-11.5,0l-46.9,72.2
	c-3.6,4.7-0.2,11.5,5.8,11.5l0,0c6.3,0,9.5,7.4,5.3,12l-70.2,90.7c-4.2,4.6-0.9,12,5.3,12h20.6c6.2,0,9.5,7.2,5.5,11.9L30.7,345.9
	c-4,4.7-0.7,11.9,5.5,11.9h46.2c6,0,9.4,7,5.6,11.7L9.3,481.7c-3.8,4.7-0.4,11.7,5.6,11.7h92c19.9,0,36,16.1,36,36v0
	c0,21.3,17.3,38.6,38.6,38.6h1.4c23.1,0,41.9-18.7,41.9-41.9v-27.3c0-3,2.5-5.5,5.5-5.5h122.7c6,0,9.4-7,5.6-11.7l-78.7-112.1
	C276.1,364.8,279.5,357.9,285.5,357.9z"/>
</svg>
