<?xml version="1.0" encoding="utf-8"?>
<!-- Generator: Adobe Illustrator 20.0.0, SVG Export Plug-In . SVG Version: 6.00 Build 0)  -->
<svg version="1.1" id="Layer_1" xmlns="http://www.w3.org/2000/svg" xmlns:xlink="http://www.w3.org/1999/xlink" x="0px" y="0px"
	 viewBox="0 0 472 464" style="enable-background:new 0 0 472 464;" xml:space="preserve">
<style type="text/css">
	.st0{fill:#FFFFFF;}
</style>
<title>icon 58</title>
<path class="st0" d="M26.8,120.3c-3.1-26.9,66-98,106.3-115s130.1,2.6,153.5,49.2s95.3,147,157.7,114c3.3-1.8,7.3-2.4,11-2l0,0
	c15.3,1.9,22.1,20.1,11.8,31.5c-33.2,36.8-156,58-196.4,11c-73-83-152.9,16.8-166.6,31c-4,4.1-6,10-5.2,15.8l25.3,186.7
	c1.7,12.6-9.1,23.3-21.7,21.3l-21.9-3.4c-8.4-1.3-15-8.1-16-16.6L26.8,120.3z"/>
</svg>
