<?xml version="1.0" encoding="utf-8"?>
<!-- Generator: Adobe Illustrator 20.0.0, SVG Export Plug-In . SVG Version: 6.00 Build 0)  -->
<svg version="1.1" id="Layer_1" xmlns="http://www.w3.org/2000/svg" xmlns:xlink="http://www.w3.org/1999/xlink" x="0px" y="0px"
	 viewBox="0 0 488 491.9" style="enable-background:new 0 0 488 491.9;" xml:space="preserve">
<style type="text/css">
	.st0{fill:#FFFFFF;}
</style>
<path class="st0" d="M282.7,124.2c8.9-11,5.2-43.2,18-62.6c14-21.2,23-20.1,27.8-31.2c3.7-8.7,0.5-17.8-3.6-22.5s2.7-10.7,9.1-6.4
	c28.6,19,19.5,39.7,25.6,38.1s18.1-7,26.5,2.2c10,10.9,1.2,18.6,1.5,26.7c0.1,3,19.1,2.9,29.5,27c3.4,7.8-0.2,14.9-6.7,11.5
	s-8.8-7.1-18.6-3.3c-12.2,4.7-17.3,17.5-39,25.5s-45.4-0.9-53.1,1.9c-8,2.9-30.3,28.3-46.9,72.4c-8.8,23.1-24.4,81-34,114.8
	c-0.8,2.6,0.7,5.4,3.4,6.2c1.9,0.6,4,0,5.3-1.6c14.1-11,30-19.5,47-25c15.1-4.7,29.5-30,50.6-39.5c26.2-11.8,40.5-10.4,45.9-12.4
	s11.2-5.5,12.6-14.5c1.9-12.3,13.6-8.5,15.1,2.9c3.5,26.4-11.6,38.5-10.6,44c0.4,2.2,19,5.9,19.6,18.9s-15.7,14.3-16,19.2
	c-0.1,2.4,13.8,19.1,9.6,41.1c-2.1,11.2-14.2,9.7-17.4-2.2c-4.6-16.8-29.7-6.9-50.1-14.8c-24.4-9.5-43-25.2-50.6-26.8
	c-8.8-1.9-21.9,7.3-31.9,11.7c-10,4.4-30,20.5-40.5,39.2c-7.9,14.1-19.1,83-23.2,109.8c-0.9,6-6.4,10.3-12.4,9.7l-1.5-0.1
	c-5.9-0.6-10.3-5.9-9.7-11.8c0-0.3,0.1-0.7,0.1-1c0,0,14.9-75.5,20.6-99.4s30.4-104.7,33-124.5s-18.1-88.2-31.5-92.7
	c-15.8-5.4-44.6-13.8-56.8-25.2c-14.6-13.5-18.5-33.3-31.1-30.3c-15.7,3.7-19.9-7.4-7.8-15.2c20.9-13.6,36-7.2,36.2-11.7
	c0.1-4.4-6.2-21.7,5.4-28.6c11.6-6.9,21.4,5.3,25.7,9c4.4,3.7,10.6-19,31.4-27.8c9.4-4,13.1,6.8,6.4,16.9c-5.4,8,6,22.9,9.8,44.3
	c9,31.4-1.7,52.7,1,61.9s11.7,27.8,17.9,59.4c2.9,9.6,10.2,5.5,11.5,2c2.9-8.1,6.1-15.8,8.6-22.4C257,153.8,276.7,131.7,282.7,124.2
	z"/>
</svg>
