<?xml version="1.0" encoding="utf-8"?>
<!-- Generator: Adobe Illustrator 20.0.0, SVG Export Plug-In . SVG Version: 6.00 Build 0)  -->
<svg version="1.1" id="Layer_1" xmlns="http://www.w3.org/2000/svg" xmlns:xlink="http://www.w3.org/1999/xlink" x="0px" y="0px"
	 viewBox="0 0 428 252" style="enable-background:new 0 0 428 252;" xml:space="preserve">
<style type="text/css">
	.st0{fill:#FFFFFF;}
</style>
<title>icon 48</title>
<path class="st0" d="M336.2,97H335l0,0c-3.2,0-6.1-2.1-7-5.2C312.4,42.6,295,0,229,0h-1.9C199,0,152.6,14.4,130,44
	c-7.9,10.4-20.2,16.4-33.3,16.1c-0.2,0-0.4,0-0.6,0h-1.4c-51,0-93.8,45.2-94.6,96.3c-0.9,51.9,41.8,75.7,93.7,76.6H94l253.2-1h1.3
	c43.9,0,78.8-16.7,79.5-60.7C428.6,126.7,380.8,97.8,336.2,97z"/>
</svg>
