<?xml version="1.0" encoding="utf-8"?>
<!-- Generator: Adobe Illustrator 20.0.0, SVG Export Plug-In . SVG Version: 6.00 Build 0)  -->
<svg version="1.1" id="Layer_1" xmlns="http://www.w3.org/2000/svg" xmlns:xlink="http://www.w3.org/1999/xlink" x="0px" y="0px"
	 viewBox="0 0 476 452" style="enable-background:new 0 0 476 452;" xml:space="preserve">
<style type="text/css">
	.st0{fill:#FFFFFF;}
</style>
<title>icon 5</title>
<path class="st0" d="M417.9,169H309.5c-8.4,0-16-5.3-18.8-13.3L254.8,53.4c-6.2-17.7-31.3-17.7-37.5,0l-35.9,102.3
	c-2.8,8-10.3,13.3-18.8,13.3H56.8c-18.8,0-27.1,23.7-12.4,35.4l85.1,67.9c6.4,5.1,9,13.6,6.6,21.4l-31.7,103.8
	c-5.5,18,14.8,32.9,30.3,22.2l90.1-62.1c6.8-4.7,15.8-4.7,22.6,0l90.1,62.1c15.5,10.7,35.8-4.2,30.3-22.2L336,293.9
	c-2.4-7.9,0.3-16.5,6.8-21.5l87.3-67.7C445.1,193,436.9,169,417.9,169z"/>
</svg>
