<?xml version="1.0" encoding="utf-8"?>
<!-- Generator: Adobe Illustrator 20.0.0, SVG Export Plug-In . SVG Version: 6.00 Build 0)  -->
<svg version="1.1" id="Layer_1" xmlns="http://www.w3.org/2000/svg" xmlns:xlink="http://www.w3.org/1999/xlink" x="0px" y="0px"
	 viewBox="0 0 124 110" style="enable-background:new 0 0 124 110;" xml:space="preserve">
<style type="text/css">
	.st0{fill:#FFFFFF;}
</style>
<title>icon 68</title>
<path class="st0" d="M77.3,77.5c0-5.7-4.6-10.4-10.4-10.4h-8.8c-4.7,0-9.7,2.7-9.7,7.8v17c0,6.3,5.1,11.3,11.3,11.3h5.5
	c6.7,0,12.1-5.4,12.1-12.1L77.3,77.5z M96.7,110H27.4c-5.6,0-10.2-4.5-10.2-10.2V69c0-5.2,2.1-10.2,5.9-13.9l31.3-30.6
	c2.1-2.4,5.1-3.9,8.3-4c2.9,0,5.7,1.4,8.2,3.9l31.5,31.9c3,3,4.6,7,4.6,11.2v32.3C106.9,105.4,102.4,110,96.7,110L96.7,110L96.7,110
	z M41.1,13.8c2.9-2.6,5.7-5.2,8.6-7.8c4.3-4,8.8-6,13.4-6c4,0,7.8,1.5,10.8,4.1C74,4.2,74,4.2,74.1,4.3l49.6,49l0.1,0.6
	c0.5,2.5,0.1,4.5-1,5.9c-1.1,1.2-2.7,1.9-4.3,1.8c-1.2,0-2.3-0.2-3.4-0.6l-0.4-0.2l-47-46.1c-1.4-1.3-3.3-2.1-5.3-2.1
	c-3.9,0-7.1,3.3-7.1,3.3L10.4,60.1L10,60.2c-1.3,0.6-2.7,0.9-4.1,0.9c-1.6,0.1-3.1-0.6-4.2-1.7c-1.3-1.6-1.9-3.5-1.7-5.5l0.1-0.8
	C6.5,47,12.9,41,19.3,34.9C26.6,27.9,33.8,20.8,41.1,13.8z"/>
</svg>
