<?xml version="1.0" encoding="utf-8"?>
<!-- Generator: Adobe Illustrator 20.0.0, SVG Export Plug-In . SVG Version: 6.00 Build 0)  -->
<svg version="1.1" id="Layer_1" xmlns="http://www.w3.org/2000/svg" xmlns:xlink="http://www.w3.org/1999/xlink" x="0px" y="0px"
	 viewBox="0 0 364 534" style="enable-background:new 0 0 364 534;" xml:space="preserve">
<style type="text/css">
	.st0{fill:#FFFFFF;}
</style>
<title>icon 42</title>
<path class="st0" d="M181.9,307.2c-69.5-0.2-125.6-56.7-125.4-126.1c0.2-69.5,56.7-125.6,126.1-125.4
	C251.9,55.9,308,112.2,308,181.5c0,69.5-56.3,125.8-125.8,125.8C182.1,307.2,182,307.2,181.9,307.2z M182,0C81.5,0,0,81.3,0,181.5
	C0,257.4,151.7,526.1,182,526c29.8,0.2,182-269.6,182-344.5C364,81.3,282.5,0,182,0z"/>
</svg>
