<?xml version="1.0" encoding="utf-8"?>
<!-- Generator: Adobe Illustrator 20.0.0, SVG Export Plug-In . SVG Version: 6.00 Build 0)  -->
<svg version="1.1" id="Layer_1" xmlns="http://www.w3.org/2000/svg" xmlns:xlink="http://www.w3.org/1999/xlink" x="0px" y="0px"
	 viewBox="0 0 424 488" style="enable-background:new 0 0 424 488;" xml:space="preserve">
<style type="text/css">
	.st0{fill:#FFFFFF;}
</style>
<title>Type seconds</title>
<path class="st0" d="M38.3,276c0,95.8,77.7,173.5,173.6,173.5S385.6,371.9,385.6,276S307.9,102.5,212,102.5S38.3,180.2,38.3,276z
	 M262.8,70.4c83,20.2,161.3,88.3,161.3,205.8l0,0c0,117-94.9,211.9-212,211.9S0,393.2,0,276.1C0,176.9,68.4,93.8,160.6,70.8
	c0,0,25.4-6.5,51.8-6.5S262.8,70.4,262.8,70.4z"/>
<g>
	<path class="st0" d="M269.4,306.1c0,8.3-1.5,15.4-4.6,21.5c-3,6.1-7.3,11.1-12.8,15.1c-5.5,4-12,6.9-19.6,8.9s-15.8,2.9-24.8,2.9
		c-7.9,0-15.6-0.5-23-1.4c-5.8-0.7-11.5-1.8-17.2-3.3c-2.8-0.7-4.7-3.3-4.7-6.1V329c0-4.3,4.1-7.3,8.2-6.1c1,0.3,1.9,0.6,2.9,0.8
		c3.9,1.1,7.7,2,11.6,2.8c3.9,0.8,7.8,1.4,11.6,1.9c3.9,0.5,7.6,0.7,11.2,0.7c5.4,0,10-0.5,13.8-1.4c3.8-0.9,6.9-2.2,9.3-3.8
		c2.4-1.6,4.1-3.5,5.2-5.8c1.1-2.2,1.6-4.7,1.6-7.4c0-3.7-1.1-6.8-3.2-9.3c-2.1-2.5-4.9-4.7-8.4-6.7c-3.5-1.9-7.4-3.7-11.9-5.2
		c-4.4-1.5-9-3.2-13.5-5c-4.6-1.8-9.1-3.8-13.5-6c-4.4-2.2-8.4-5-11.9-8.3c-3.5-3.3-6.3-7.3-8.4-11.9c-2.1-4.6-3.2-10.1-3.2-16.6
		c0-5.9,1.1-11.6,3.2-16.9c2.2-5.3,5.6-10,10.2-13.9c4.6-4,10.6-7.1,17.8-9.5c7.3-2.4,16-3.5,26.3-3.5c3,0,6.2,0.1,9.4,0.4
		c3.3,0.3,6.5,0.6,9.7,1c3.2,0.4,6.3,0.9,9.3,1.5c1.1,0.2,2.1,0.4,3.1,0.6c2.9,0.6,5,3.2,5,6.2v12.3c0,4.2-4,7.2-8,6.1
		c0,0-0.1,0-0.1,0c-2.9-0.8-6-1.4-9.1-2c-3.1-0.6-6.3-1-9.4-1.3c-3.2-0.3-6.2-0.5-9-0.5c-5,0-9.3,0.4-12.7,1.2
		c-3.5,0.8-6.3,1.9-8.6,3.4c-2.2,1.4-3.9,3.2-4.9,5.3c-1,2.1-1.5,4.4-1.5,6.9c0,3.2,1.1,5.9,3.2,8.2c2.1,2.3,4.9,4.3,8.4,6.1
		c3.5,1.8,7.5,3.5,11.9,5.1c4.4,1.6,9,3.3,13.7,5.1c4.7,1.8,9.2,3.9,13.7,6.2c4.4,2.3,8.4,5.1,11.9,8.4c3.5,3.3,6.3,7.2,8.4,11.7
		C268.3,294.5,269.4,299.9,269.4,306.1z"/>
</g>
</svg>
