<?xml version="1.0" encoding="utf-8"?>
<!-- Generator: Adobe Illustrator 20.0.0, SVG Export Plug-In . SVG Version: 6.00 Build 0)  -->
<svg version="1.1" id="Layer_1" xmlns="http://www.w3.org/2000/svg" xmlns:xlink="http://www.w3.org/1999/xlink" x="0px" y="0px"
	 viewBox="0 0 424 488" style="enable-background:new 0 0 424 488;" xml:space="preserve">
<style type="text/css">
	.st0{fill:#FFFFFF;}
</style>
<title>Type seconds</title>
<path class="st0" d="M38.3,276c0,95.8,77.7,173.5,173.6,173.5S385.6,371.9,385.6,276S307.9,102.5,212,102.5S38.3,180.2,38.3,276z
	 M262.8,70.4c83,20.2,161.3,88.3,161.3,205.8l0,0c0,117-94.9,211.9-212,211.9S0,393.2,0,276.1C0,176.9,68.4,93.8,160.6,70.8
	c0,0,25.4-6.5,51.8-6.5S262.8,70.4,262.8,70.4z"/>
<g>
	<path class="st0" d="M253.3,355.6c-1.9,0-3.5-1.5-3.5-3.4l-2.7-82.1l-0.4-13.3c-0.1-4-5.7-4.8-6.9-1l-1,3.2l-16,49.1
		c-0.5,1.5-1.8,2.4-3.4,2.4h-12.6c-1.6,0-2.9-1-3.4-2.5L189,259l0,0c-1.1-3.9-6.8-3.2-6.9,0.9l-0.2,9.4l-2.4,82.8
		c-0.1,1.9-1.6,3.4-3.5,3.4h-17c-2,0-3.6-1.7-3.5-3.7l7.1-144.2c0.1-1.9,1.6-3.4,3.5-3.4h26.2c1.5,0,2.9,1,3.4,2.5l12.5,40.4l3,11.6
		c0.9,3.5,5.9,3.5,6.8,0.1l2.9-10.2l13.2-41.9c0.5-1.5,1.8-2.5,3.4-2.5h26.8c1.9,0,3.4,1.5,3.5,3.4l7.2,144.2c0.1,2-1.5,3.7-3.5,3.7
		H253.3z"/>
</g>
</svg>
