<?xml version="1.0" encoding="utf-8"?>
<!-- Generator: Adobe Illustrator 20.0.0, SVG Export Plug-In . SVG Version: 6.00 Build 0)  -->
<svg version="1.1" id="Layer_1" xmlns="http://www.w3.org/2000/svg" xmlns:xlink="http://www.w3.org/1999/xlink" x="0px" y="0px"
	 viewBox="0 0 424 488" style="enable-background:new 0 0 424 488;" xml:space="preserve">
<style type="text/css">
	.st0{fill:#FFFFFF;}
</style>
<title>Type seconds</title>
<path class="st0" d="M38.3,276c0,95.8,77.7,173.5,173.6,173.5S385.6,371.9,385.6,276S307.9,102.5,212,102.5S38.3,180.2,38.3,276z
	 M262.8,70.4c83,20.2,161.3,88.3,161.3,205.8l0,0c0,117-94.9,211.9-212,211.9S0,393.2,0,276.1C0,176.9,68.4,93.8,160.6,70.8
	c0,0,25.4-6.5,51.8-6.5S262.8,70.4,262.8,70.4z"/>
<g>
	<path class="st0" d="M237.7,340.7v-37.4c0-7.9-6.4-14.2-14.2-14.2h-22.9c-7.9,0-14.2,6.4-14.2,14.2v37.4c0,7.9-6.4,14.2-14.2,14.2
		h0c-7.9,0-14.2-6.4-14.2-14.2V217.9c0-7.9,6.4-14.2,14.2-14.2h0c7.9,0,14.2,6.4,14.2,14.2v32.3c0,7.9,6.4,14.2,14.2,14.2h22.9
		c7.9,0,14.2-6.4,14.2-14.2v-32.3c0-7.9,6.4-14.2,14.2-14.2h0c7.9,0,14.2,6.4,14.2,14.2v122.8c0,7.9-6.4,14.2-14.2,14.2h0
		C244.1,354.9,237.7,348.5,237.7,340.7z"/>
</g>
</svg>
