<svg id="Layer_1" data-name="Layer 1" xmlns="http://www.w3.org/2000/svg" viewBox="0 0 311.21 469.99"><defs><style>.cls-1{fill:#fff;}</style></defs><title>Question</title><path class="cls-1" d="M262,489.82c-23.28,0-42.16-18.15-42.16-40.57s18.88-40.56,42.16-40.56,42.12,18.16,42.12,40.56S285.25,489.82,262,489.82Zm70.44-219.25c-21.52,13.59-29.56,29.25-29.56,45.89V362.2a15.62,15.62,0,0,1-15.62,15.62H236.67A15.62,15.62,0,0,1,221,362.2V286.81c0-27.16,9.24-45.63,36.12-62.24l46.12-30.2c29.36-19.48,29.21-58.6,10.75-75.95-16.13-15.18-43.31-23.95-72.28-18.3-53.12,10.34-57.41,48.09-57.41,83.91h0a15.62,15.62,0,0,1-15.62,15.62H118.37a15.63,15.63,0,0,1-15.62-16c1.3-56.3,10.53-84.84,44-120.11,40.73-43,98.16-49.95,151.15-39.39S414,84.54,414,157,354,257,332.43,270.57Z" transform="translate(-102.75 -19.82)"/></svg>