<?xml version="1.0" encoding="utf-8"?>
<!-- Generator: Adobe Illustrator 20.0.0, SVG Export Plug-In . SVG Version: 6.00 Build 0)  -->
<svg version="1.1" id="Layer_1" xmlns="http://www.w3.org/2000/svg" xmlns:xlink="http://www.w3.org/1999/xlink" x="0px" y="0px"
	 viewBox="0 0 512 512" style="enable-background:new 0 0 512 512;" xml:space="preserve">
<style type="text/css">
	.st0{fill:#FFFFFF;}
</style>
<path class="st0" d="M374.8,139.3H142c-11.3,0-20.4-9.1-20.4-20.3s9.1-20.3,20.4-20.3h232.8c11.3,0,20.4,9.1,20.4,20.3
	C395.2,130.2,386.1,139.3,374.8,139.3z M374.8,240.7H142c-11.3,0-20.4-9.1-20.4-20.3s9.1-20.3,20.4-20.3h232.8
	c11.3,0,20.4,9.1,20.4,20.3C395.2,231.6,386.1,240.7,374.8,240.7z M171.6,343H142c-11.3,0-20.4-9.1-20.4-20.3
	c0-11.2,9.1-20.3,20.4-20.3h29.6c11.3,0,20.4,9.1,20.4,20.3S182.9,343,171.6,343z M414.1-15H102.7c-34.4,0-62.3,27.8-62.3,62
	c0,0,0.1,314.1,0.1,350.7S61.2,459,101.8,459s277.3,0,313.3,0s61.3-30,61.3-61.3s0-350.7,0-350.7C476.4,12.8,448.5-15,414.1-15z"/>
</svg>
