<?xml version="1.0" encoding="utf-8"?>
<!-- Generator: Adobe Illustrator 20.0.0, SVG Export Plug-In . SVG Version: 6.00 Build 0)  -->
<svg version="1.1" id="Layer_1" xmlns="http://www.w3.org/2000/svg" xmlns:xlink="http://www.w3.org/1999/xlink" x="0px" y="0px"
	 viewBox="0 0 388 488" style="enable-background:new 0 0 388 488;" xml:space="preserve">
<style type="text/css">
	.st0{fill:#FFFFFF;}
</style>
<title>Tutorial</title>
<path class="st0" d="M316.6,112.8H71.4c-8-0.2-14.3-6.8-14.1-14.8c0.2-7.7,6.4-13.9,14.1-14.1h245.2c8,0.2,14.3,6.8,14.1,14.8
	C330.5,106.4,324.3,112.6,316.6,112.8z M316.6,257.2H71.8c-7.8,0-14.5-6-14.9-13.8c-0.4-8.3,6.2-15.1,14.4-15.1h244.8
	c7.8,0,14.5,6,14.9,13.8C331.4,250.4,324.8,257.2,316.6,257.2z M316.6,329.4H71.8c-7.8,0-14.5-6-14.9-13.8
	c-0.4-8.3,6.2-15.1,14.4-15.1h244.8c7.8,0,14.5,6,14.9,13.8C331.4,322.6,324.8,329.4,316.6,329.4L316.6,329.4z M126,401.7H71.4
	c-8-0.2-14.3-6.8-14.1-14.8c0.2-7.7,6.4-13.9,14.1-14.1h75.6c8,0.2,14.3,6.8,14.1,14.8c-0.2,7.7-6.4,13.9-14.1,14.1L126,401.7z
	 M360.5,0h-333C12.3,0.1,0,12.4,0,27.7v432.7c0,15.2,12.3,27.6,27.5,27.7h333c15.2-0.1,27.5-12.4,27.5-27.7V27.7
	C388,12.4,375.7,0.1,360.5,0z"/>
</svg>
