<?xml version="1.0" encoding="utf-8"?>
<!-- Generator: Adobe Illustrator 20.0.0, SVG Export Plug-In . SVG Version: 6.00 Build 0)  -->
<svg version="1.1" id="Layer_1" xmlns="http://www.w3.org/2000/svg" xmlns:xlink="http://www.w3.org/1999/xlink" x="0px" y="0px"
	 viewBox="0 0 457 356" style="enable-background:new 0 0 457 356;" xml:space="preserve">
<style type="text/css">
	.st0{fill:#FFFFFF;}
</style>
<title>icon 3</title>
<path class="st0" d="M243.3,196.2l144.3-69.1c1.7-0.8,3.5-1.3,5.4-1.3c5.1,0.1,9.7,3.4,11.4,8.5c0.4,1.2,0.6,2.5,0.6,3.8l0,144.3
	c0,3.9-1.9,7.6-5,9.9c-34,24-134.6,40.1-156.5,39.9c-0.8,0-1.6,0.2-2.4,0.2c-86.5-1.3-147.4-20.9-165.3-28.5
	c-4.5-1.9-7.5-6.3-7.5-11.3V149.2c0-5.7,4-10.7,9.6-11.9l0,0c2.5-0.5,5.1-0.3,7.4,0.7l148.3,58.6c1.9,0.8,4,1.1,6,0.9
	C240.8,197.3,242.1,196.8,243.3,196.2z M232.9,175.6L7.7,89.2c-6.3-2.5-9.3-9.6-6.8-15.9c1.3-3.3,4-5.8,7.3-7l148.9-52.5
	c0,0,30.2-13.8,79.5-13.8s71.8,11.3,71.8,11.3l136.9,48.1c6.3,2.4,9.5,9.4,7.1,15.8c-1.2,3.1-3.5,5.6-6.5,6.9l-203.6,93.4
	C239.4,176.8,236,176.8,232.9,175.6L232.9,175.6z"/>
<path class="st0" d="M35.9,126.5c-1,15.3-10.7,81.1,17.6,130.6c0.3,0.6,0.6,1.2,0.9,1.8c2.6,7.3,16.9,51.4-22.7,56.8
	c0,0-35.7,5.9-31.2-63.8c0,0,7.4-105.7,16.1-124.1c0.1-0.3,0.3-0.6,0.4-0.9c1.4-3.7,11.7-28.7,18.6-4.6
	C35.9,123.8,36,125.2,35.9,126.5z"/>
</svg>
