<?xml version="1.0" encoding="utf-8"?>
<!-- Generator: Adobe Illustrator 20.0.0, SVG Export Plug-In . SVG Version: 6.00 Build 0)  -->
<svg version="1.1" id="Layer_1" xmlns="http://www.w3.org/2000/svg" xmlns:xlink="http://www.w3.org/1999/xlink" x="0px" y="0px"
	 viewBox="0 0 497 533.9" style="enable-background:new 0 0 497 533.9;" xml:space="preserve">
<style type="text/css">
	.st0{fill:#FFFFFF;}
</style>
<title>icon 10</title>
<path class="st0" d="M247.3,13.5c16.2,0.1,29.3,13.3,29.3,29.5l0,0l0.5,159.2c0,23.5,12.2,45.3,32.2,57.6l160.1,74
	c4.4,2.7,7.1,7.6,7.1,12.8v25.1c0,9.6-9.4,16.3-18.4,13.3l-160.2-28.6c-10.2-3.4-20.8,4.2-20.8,15v63.2c0,11.6,4.7,22.8,13,31
	l21.9,21.5c3.7,3.7,5.8,8.7,5.8,13.9v16.8c0,7.9-7.7,13.5-15.3,11.1l-1.4-0.5c-35-11.5-72.8-11.3-107.7,0.4h0
	c-7.7,2.6-15.7-3.2-15.6-11.3l0.1-16.8c0-6.2,2.6-12.2,7.1-16.5l22.3-21.5c5.6-5.4,8.8-12.9,8.8-20.7l0.2-71.1
	c0-10.4-10.2-17.7-20-14.4L36,385.9c-9.3,3.1-18.9-3.8-18.8-13.6l0.2-23.7c0.1-6.4,3.4-12.4,8.9-15.8l163.4-76.9
	c17-10.6,27.4-29.3,27.5-49.3L217,43.1c0.1-16.4,13.5-29.6,29.9-29.5L247.3,13.5z"/>
</svg>
