<?xml version="1.0" encoding="utf-8"?>
<!-- Generator: Adobe Illustrator 20.0.0, SVG Export Plug-In . SVG Version: 6.00 Build 0)  -->
<svg version="1.1" id="Layer_1" xmlns="http://www.w3.org/2000/svg" xmlns:xlink="http://www.w3.org/1999/xlink" x="0px" y="0px"
	 viewBox="0 0 460 492" style="enable-background:new 0 0 460 492;" xml:space="preserve">
<style type="text/css">
	.st0{fill:#FFFFFF;}
</style>
<title>icon 59</title>
<path class="st0" d="M64,231.7l1.8-2.3c6-7.6,15.2-12,24.9-12h54c11.4,0,20.6,9.2,20.6,20.6v27.4c0,12.2-9.8,22-22,22H90.4
	c-9.6,0-18.7-4.2-24.9-11.6l-0.9-1.2C54.3,262.4,54.1,244.5,64,231.7z M236.4,63.3c2.9,0,5.2,2.3,5.2,5.2v390.6
	c0,18.1-14,32.8-32.2,32.8s-31.5-14.7-31.5-32.8V68.5c0-2.9,2.3-5.2,5.2-5.2H236.4z M21.9,126.5l12.2-13.1C43.7,103.1,59,97,75.3,97
	h59.5c16.8,0,30.4,10.6,30.4,23.8V181c0,13.4-13.9,24.3-31,24.3H72.1c-14.2,0-27.5-5.4-35.7-14.6l-15-16.8
	C8.6,159.6,8.8,140.6,21.9,126.5z M183.1,51c-2.9,0-5.2-2.3-5.2-5.2l0,0c0-18.1,13.3-32.8,31.5-32.8s32.2,14.7,32.2,32.8l0,0
	c0,2.9-2.3,5.2-5.2,5.2H183.1z M385.9,171H284c-16.4,0-29.8-10.4-29.8-23.3V87.8c0-13.5,14-24.5,31.3-24.5h98.8
	c16.5,0,32.1,6.2,41.9,16.6l6.8,7.2c16.1,17.1,16.5,40.4,0.9,57.8l-9.1,10.2C415.9,165.1,401.4,171,385.9,171z"/>
</svg>
