<?xml version="1.0" encoding="utf-8"?>
<!-- Generator: Adobe Illustrator 20.0.0, SVG Export Plug-In . SVG Version: 6.00 Build 0)  -->
<svg version="1.1" id="Layer_1" xmlns="http://www.w3.org/2000/svg" xmlns:xlink="http://www.w3.org/1999/xlink" x="0px" y="0px"
	 viewBox="0 0 428 476" style="enable-background:new 0 0 428 476;" xml:space="preserve">
<style type="text/css">
	.st0{fill:#FFFFFF;}
</style>
<path class="st0" d="M312.3,98.5c17.9,0,32.4-14.4,32.4-32.3V32.3c0-17.9-14.5-32.4-32.4-32.4s-32.4,14.5-32.4,32.4v33.9
	C279.9,84,294.4,98.5,312.3,98.5z"/>
<path class="st0" d="M114.7,98.5c17.9,0,32.4-14.4,32.4-32.3V32.3c0-17.9-14.5-32.4-32.4-32.4S82.3,14.4,82.3,32.3v33.9
	C82.3,84,96.8,98.5,114.7,98.5z"/>
<path class="st0" d="M365.9,64.9c-2.3,3.5-4,7.4-5,11.7c-6.2,26.6-32.7,43.2-59.3,37c-17.5-4.1-31.3-7.3-36.2-24.6
	c-5.2-17.8-21.5-30-40-29.9h-21.7c-19,0.1-35.6,12.5-41.1,30.7c-8,26.1-35.7,30.9-61.8,22.9c-16.9-5.2-29.7-18.9-33.7-36.1
	c-3.6-16-17.8-27.4-34.2-27.4C14.8,49.2,0,63.9,0,82.1v360.4C0,460.9,15.1,476,33.5,476h361.6c18.2,0,32.9-14.7,32.9-32.8V84.3
	C428,50.9,384.3,37,365.9,64.9z M214,362.9c-35.9,0-61.1-28.8-61.1-61.1c0-25.2,32.4-82.6,50.3-104.2c0,0,0-0.1,0.1-0.1
	c3.6-7.1,14.4-7.1,21.5,0c0,0,0,0,0.1,0.1c18,21.6,50.3,79.1,50.3,104.2C275.1,334.1,250,362.9,214,362.9z"/>
</svg>
