<?xml version="1.0" encoding="utf-8"?>
<!-- Generator: Adobe Illustrator 20.0.0, SVG Export Plug-In . SVG Version: 6.00 Build 0)  -->
<svg version="1.1" id="Layer_1" xmlns="http://www.w3.org/2000/svg" xmlns:xlink="http://www.w3.org/1999/xlink" x="0px" y="0px"
	 viewBox="0 0 12.8 9.8" style="enable-background:new 0 0 12.8 9.8;" xml:space="preserve">
<style type="text/css">
	.st0{display:none;fill:none;stroke:#FFFFFF;stroke-width:3;stroke-linecap:round;stroke-linejoin:round;}
	.st1{fill:#FFFFFF;}
</style>
<polyline class="st0" points="1.5,4.4 4.9,8.3 11.3,1.5 "/>
<path class="st1" d="M12.3,1.2c-0.6-0.6-1.5-0.6-2.1,0L6.4,4.9l0,0L5.1,6.3L2.7,3.3C2.1,2.7,1.2,2.6,0.6,3.2s-0.7,1.5-0.2,2.1l3.4,4
	C4.1,9.7,4.6,9.8,5,9.8c0.4,0,0.8-0.1,1.1-0.4L8.5,7l1.4-1.4l2.4-2.4C12.8,2.7,12.8,1.8,12.3,1.2z"/>
</svg>
