<?xml version="1.0" encoding="utf-8"?>
<!-- Generator: Adobe Illustrator 20.0.0, SVG Export Plug-In . SVG Version: 6.00 Build 0)  -->
<svg version="1.1" id="Layer_1" xmlns="http://www.w3.org/2000/svg" xmlns:xlink="http://www.w3.org/1999/xlink" x="0px" y="0px"
	 viewBox="0 0 512 512" style="enable-background:new 0 0 512 512;" xml:space="preserve">
<style type="text/css">
	.st0{fill:#FFFFFF;}
</style>
<path class="st0" d="M262.8,466.1V339.1c0-4.7,6.6-5.9,8.2-1.4l15,41.1c0.9,2.3,3.6,3.4,5.8,2.4l138.9-67c8.8-4.2,19,2.2,19,11.9
	v59.3c0,1.7-1,3.2-2.5,3.9l-178.4,80.7C266,471.2,262.8,469.1,262.8,466.1z M68.7,385.3l0.4-62.6c0.1-8.5,9-14,16.6-10.3l139.5,68.6
	c2.2,1.1,4.9,0.1,5.8-2.2l6.7-17c3.9-9.8,18.4-7,18.4,3.5v100.7c0,3.1-3.2,5.1-6,3.9l-179-80.7C69.7,388.5,68.7,387,68.7,385.3z
	 M437.3,198.4l-171.6-84.1c-2.5-1.2-3.1-4.4-1.4-6.5l15.6-10c7.5-4.8,14.8-10.1,21.6-15.9c15-12.9,36.5-15.6,54.5-6.3l94.9,31.9
	c24.2,12.5,30.4,44.3,12.7,65l-21.3,24.9C441.1,198.8,439,199.2,437.3,198.4z M82.9,198.4c-1.7,0.8-3.8,0.4-5-1l-23.4-26.5
	c-18-20.5-11.8-52.4,12.6-64.6l96.9-31c18-9,39.3-6.1,54.3,6.5c7.5,6.3,15.2,12.4,23.5,17.8l12.7,8.3c1.7,2.1,1,5.2-1.4,6.4
	L82.9,198.4z M275.2,321.5l-12.3-35.3c-0.7-2.1,0.2-4.3,2.2-5.2l171.2-79.1c2.1-1,4.7,0,5.6,2.1l17.3,39.4
	c9.3,21.4,0,46.3-21.1,56.3l-100.8,47.7C313,359,284,346.9,275.2,321.5z M180.4,347.5L83.7,300c-20.1-9.9-29.4-33.5-21.3-54.4
	l15.9-41.4c0.9-2.3,3.5-3.3,5.7-2.3l170.2,79c2,0.9,2.9,3.2,2.2,5.3l-13.1,36C233.9,347.6,204.7,359.4,180.4,347.5z"/>
</svg>
