<svg id="Layer_1" data-name="Layer 1" xmlns="http://www.w3.org/2000/svg" viewBox="0 0 399.97 422.92"><defs><style>.cls-1{fill:#fff;}</style></defs><title>Graphic 1</title><path class="cls-1" d="M112.93,465.22H102.07a41,41,0,0,1-41-41V294.89a41,41,0,0,1,41-41h10.86a41,41,0,0,1,41,41V424.22A41,41,0,0,1,112.93,465.22Zm155.52,0H257.51a41,41,0,0,1-41-41V186a41,41,0,0,1,41-41h10.94a41,41,0,0,1,41,41V424.22A41,41,0,0,1,268.45,465.22Zm151.59,0H409.17a41,41,0,0,1-41-41V83.3a41,41,0,0,1,41-41H420a41,41,0,0,1,41,41V424.22A41,41,0,0,1,420,465.22Z" transform="translate(-61.07 -42.3)"/></svg>