<?xml version="1.0" encoding="utf-8"?>
<!-- Generator: Adobe Illustrator 20.0.0, SVG Export Plug-In . SVG Version: 6.00 Build 0)  -->
<svg version="1.1" id="Layer_1" xmlns="http://www.w3.org/2000/svg" xmlns:xlink="http://www.w3.org/1999/xlink" x="0px" y="0px"
	 viewBox="0 0 386.7 363.9" style="enable-background:new 0 0 386.7 363.9;" xml:space="preserve">
<style type="text/css">
	.st0{fill:#FFFFFF;}
</style>
<path class="st0" d="M6.9,357.7L6.9,357.7c-7.7-7.3-9.2-19.1-3.4-28L50,257.4l0,0c0.8-1.2,2.4-1.6,3.7-0.8c0.1,0.1,0.2,0.2,0.3,0.3
	l58.8,55.5c1.1,1,1.1,2.7,0.1,3.7c-0.2,0.2-0.4,0.4-0.6,0.5L33.6,361C24.9,365.8,14.1,364.5,6.9,357.7z M128.4,300.6l-61.4-57.8
	c-1.1-1-1.1-2.7-0.1-3.7c0,0,0.1-0.1,0.1-0.1L272.6,46.1c1-1,2.6-1,3.6,0l61.5,58c1.1,1,1.1,2.7,0.1,3.7c0,0-0.1,0.1-0.1,0.1
	L132,300.6C131,301.5,129.4,301.5,128.4,300.6L128.4,300.6z M373.2,74.2l-16.7,15.7c-1,1-2.6,1-3.6,0l-61.4-57.8
	c-1.1-1-1.1-2.7-0.1-3.7c0,0,0.1-0.1,0.1-0.1L308,12.7c18-17,47.2-17,65.2,0S391.2,57.2,373.2,74.2L373.2,74.2z"/>
</svg>
