<svg id="Layer_1" data-name="Layer 1" xmlns="http://www.w3.org/2000/svg" viewBox="0 0 362.83 348.07"><defs><style>.cls-1{fill:#fff;}</style></defs><title>Star</title><path class="cls-1" d="M388.4,169H302.47a10,10,0,0,1-9.43-6.69l-28.7-81.72c-9.39-26.74-47.22-26.74-56.61,0L179,162.31a10,10,0,0,1-9.44,6.69H85.68C57.31,169,44.79,204.75,67,222.45L134.7,276.5A10,10,0,0,1,138,287.24l-25.2,82.47c-8.3,27.17,22.31,49.59,45.71,33.47l71.81-49.47a10,10,0,0,1,11.35,0l71.8,49.46c23.4,16.12,54-6.3,45.71-33.48L334,287.34a10,10,0,0,1,3.43-10.82l69.34-53.81C429.37,205.18,417,169,388.4,169Z" transform="translate(-55.62 -60.53)"/></svg>