<?xml version="1.0" encoding="utf-8"?>
<!-- Generator: Adobe Illustrator 20.0.0, SVG Export Plug-In . SVG Version: 6.00 Build 0)  -->
<svg version="1.1" id="Layer_1" xmlns="http://www.w3.org/2000/svg" xmlns:xlink="http://www.w3.org/1999/xlink" x="0px" y="0px"
	 viewBox="0 0 50 51" style="enable-background:new 0 0 50 51;" xml:space="preserve">
<style type="text/css">
	.st0{display:none;fill:none;stroke:#FFFFFF;stroke-width:5;stroke-linecap:round;}
	.st1{fill:#FFFFFF;}
</style>
<path id="Line" class="st0" d="M25,19v12"/>
<path id="Line-copy" class="st0" d="M18,27v4"/>
<path id="Line-copy_1_" class="st0" d="M32,23v8"/>
<path class="st1" d="M18,33.5L18,33.5c-1.4,0-2.5-1.1-2.5-2.5v-4.3c0-1.4,1.1-2.5,2.5-2.5h0c1.4,0,2.5,1.1,2.5,2.5V31
	C20.5,32.4,19.4,33.5,18,33.5z"/>
<path class="st1" d="M25,33.5L25,33.5c-1.4,0-2.5-1.1-2.5-2.5V19c0-1.4,1.1-2.5,2.5-2.5h0c1.4,0,2.5,1.1,2.5,2.5V31
	C27.5,32.4,26.4,33.5,25,33.5z"/>
<path class="st1" d="M32,33.6L32,33.6c-1.4,0-2.5-1.1-2.5-2.5v-8.3c0-1.4,1.1-2.5,2.5-2.5h0c1.4,0,2.5,1.1,2.5,2.5v8.3
	C34.5,32.5,33.4,33.6,32,33.6z"/>
</svg>
