<?xml version="1.0" encoding="utf-8"?>
<!-- Generator: Adobe Illustrator 20.0.0, SVG Export Plug-In . SVG Version: 6.00 Build 0)  -->
<svg version="1.1" id="Layer_1" xmlns="http://www.w3.org/2000/svg" xmlns:xlink="http://www.w3.org/1999/xlink" x="0px" y="0px"
	 viewBox="0 0 60 60" style="enable-background:new 0 0 60 60;" xml:space="preserve">
<style type="text/css">
	.st0{fill:#FFFFFF;}
</style>
<path class="st0" d="M41.1,25.1l-8.7-8.7l0,0l0,0c-0.5-0.5-1.1-0.8-1.7-0.9c0,0,0,0-0.1,0c-0.2,0-0.5-0.1-0.7-0.1l0,0l0,0
	c-0.2,0-0.5,0-0.7,0.1c0,0,0,0-0.1,0c-0.6,0.1-1.2,0.4-1.7,0.9l0,0l-8.7,8.7c-1.3,1.3-1.3,3.5,0,4.9c1.3,1.3,3.5,1.3,4.9,0l2.7-2.7
	c0,0,0.1,0,0.1,0l0,16.6c0,1.9,1.4,3.6,3.3,3.6c1.9,0.1,3.5-1.5,3.5-3.4V27.3c0,0,0.1-0.1,0.1,0L36,30c1.3,1.3,3.5,1.3,4.9,0l0,0
	C42.5,28.6,42.5,26.4,41.1,25.1z"/>
</svg>
