<?xml version="1.0" encoding="utf-8"?>
<svg width="450px" height="245px" viewBox="0 0 450 245" version="1.1" xmlns:xlink="http://www.w3.org/1999/xlink" xmlns="http://www.w3.org/2000/svg">
  <desc>Created with Lunacy</desc>
  <path d="M26.999 0L423.001 0Q423.664 0 424.326 0.0325215Q424.988 0.065043 425.647 0.130008Q426.307 0.194972 426.963 0.292223Q427.618 0.389475 428.268 0.518778Q428.918 0.648082 429.561 0.809126Q430.204 0.97017 430.838 1.16257Q431.473 1.35496 432.097 1.57825Q432.721 1.80154 433.333 2.05518Q433.945 2.30881 434.545 2.59219Q435.144 2.87557 435.728 3.18801Q436.313 3.50044 436.881 3.84119Q437.45 4.18193 438.001 4.55015Q438.552 4.91838 439.084 5.3132Q439.617 5.70802 440.129 6.12849Q440.641 6.54896 441.132 6.99406Q441.623 7.43916 442.092 7.90782Q442.561 8.37649 443.006 8.86758Q443.451 9.35867 443.871 9.87102Q444.292 10.3834 444.687 10.9157Q445.082 11.4481 445.45 11.9992Q445.818 12.5502 446.159 13.1187Q446.5 13.6872 446.812 14.2718Q447.124 14.8563 447.408 15.4554Q447.691 16.0546 447.945 16.6669Q448.198 17.2793 448.422 17.9033Q448.645 18.5274 448.837 19.1616Q449.03 19.7959 449.191 20.4388Q449.352 21.0817 449.481 21.7318Q449.611 22.3818 449.708 23.0374Q449.805 23.693 449.87 24.3526Q449.935 25.0122 449.967 25.6742Q450 26.3362 450 26.999L450 218.001Q450 218.664 449.967 219.326Q449.935 219.988 449.87 220.647Q449.805 221.307 449.708 221.963Q449.611 222.618 449.481 223.268Q449.352 223.918 449.191 224.561Q449.03 225.204 448.837 225.838Q448.645 226.473 448.422 227.097Q448.198 227.721 447.945 228.333Q447.691 228.945 447.408 229.545Q447.124 230.144 446.812 230.728Q446.5 231.313 446.159 231.881Q445.818 232.45 445.45 233.001Q445.082 233.552 444.687 234.084Q444.292 234.617 443.871 235.129Q443.451 235.641 443.006 236.132Q442.561 236.623 442.092 237.092Q441.623 237.561 441.132 238.006Q440.641 238.451 440.129 238.871Q439.617 239.292 439.084 239.687Q438.552 240.082 438.001 240.45Q437.45 240.818 436.881 241.159Q436.313 241.5 435.728 241.812Q435.144 242.124 434.544 242.408Q433.945 242.691 433.333 242.945Q432.721 243.198 432.097 243.422Q431.473 243.645 430.838 243.837Q430.204 244.03 429.561 244.191Q428.918 244.352 428.268 244.481Q427.618 244.611 426.963 244.708Q426.307 244.805 425.647 244.87Q424.988 244.935 424.326 244.967Q423.664 245 423.001 245L26.999 245Q26.3362 245 25.6742 244.967Q25.0122 244.935 24.3526 244.87Q23.693 244.805 23.0374 244.708Q22.3818 244.611 21.7318 244.481Q21.0817 244.352 20.4388 244.191Q19.7959 244.03 19.1616 243.837Q18.5274 243.645 17.9033 243.422Q17.2793 243.198 16.6669 242.945Q16.0546 242.691 15.4554 242.408Q14.8563 242.124 14.2718 241.812Q13.6872 241.5 13.1187 241.159Q12.5502 240.818 11.9992 240.45Q11.4481 240.082 10.9157 239.687Q10.3834 239.292 9.87102 238.871Q9.35867 238.451 8.86758 238.006Q8.37649 237.561 7.90782 237.092Q7.43916 236.623 6.99406 236.132Q6.54896 235.641 6.12849 235.129Q5.70802 234.617 5.3132 234.084Q4.91838 233.552 4.55015 233.001Q4.18193 232.45 3.84119 231.881Q3.50044 231.313 3.18801 230.728Q2.87557 230.144 2.59219 229.545Q2.30881 228.945 2.05518 228.333Q1.80154 227.721 1.57825 227.097Q1.35496 226.473 1.16257 225.838Q0.970171 225.204 0.809126 224.561Q0.648082 223.918 0.518778 223.268Q0.389475 222.618 0.292223 221.963Q0.194972 221.307 0.130008 220.647Q0.065043 219.988 0.0325215 219.326Q0 218.664 0 218.001L0 26.999Q0 26.3362 0.0325215 25.6742Q0.065043 25.0122 0.130008 24.3526Q0.194972 23.693 0.292223 23.0374Q0.389475 22.3818 0.518778 21.7318Q0.648082 21.0817 0.809126 20.4388Q0.97017 19.7959 1.16257 19.1616Q1.35496 18.5274 1.57825 17.9033Q1.80154 17.2793 2.05518 16.6669Q2.30881 16.0546 2.59219 15.4554Q2.87557 14.8563 3.18801 14.2718Q3.50044 13.6872 3.84119 13.1187Q4.18193 12.5502 4.55015 11.9992Q4.91838 11.4481 5.3132 10.9157Q5.70802 10.3834 6.12849 9.87102Q6.54896 9.35867 6.99406 8.86758Q7.43916 8.37649 7.90782 7.90782Q8.37649 7.43916 8.86758 6.99406Q9.35867 6.54896 9.87102 6.12849Q10.3834 5.70802 10.9157 5.3132Q11.4481 4.91838 11.9992 4.55015Q12.5502 4.18193 13.1187 3.84119Q13.6872 3.50044 14.2718 3.18801Q14.8563 2.87557 15.4554 2.59219Q16.0546 2.30881 16.6669 2.05518Q17.2793 1.80154 17.9033 1.57825Q18.5274 1.35496 19.1616 1.16257Q19.7959 0.970171 20.4388 0.809126Q21.0817 0.648082 21.7318 0.518778Q22.3818 0.389475 23.0374 0.292223Q23.693 0.194972 24.3526 0.130008Q25.0122 0.065043 25.6742 0.0325215Q26.3362 0 26.999 0Z" id="Rectangle-3" fill="#FFFFFF" stroke="none" />
</svg>